<?xml version="1.0" encoding="UTF-8" standalone="no"?>
<!DOCTYPE svg PUBLIC "-//W3C//DTD SVG 1.1//EN"
 "http://www.w3.org/Graphics/SVG/1.1/DTD/svg11.dtd">
<!-- Generated by graphviz version 8.1.0 (20230707.0739)
 -->
<!-- Title: G Pages: 1 -->
<svg width="748pt" height="188pt"
 viewBox="0.00 0.00 748.45 188.00" xmlns="http://www.w3.org/2000/svg" xmlns:xlink="http://www.w3.org/1999/xlink">
<g id="graph0" class="graph" transform="scale(1 1) rotate(0) translate(4 184)">
<title>G</title>
<polygon fill="white" stroke="none" points="-4,4 -4,-184 744.45,-184 744.45,4 -4,4"/>
<!-- a -->
<g id="node1" class="node">
<title>a</title>
<ellipse fill="none" stroke="black" cx="350.45" cy="-162" rx="144.5" ry="18"/>
<text text-anchor="middle" x="350.45" y="-156.95" font-family="Times,serif" font-size="14.00">count_length([&#39;I&#39;, &#39;am&#39;, &#39;a&#39;, &#39;student&#39;])</text>
</g>
<!-- b -->
<g id="node2" class="node">
<title>b</title>
<ellipse fill="none" stroke="black" cx="77.45" cy="-90" rx="77.45" ry="18"/>
<text text-anchor="middle" x="77.45" y="-84.95" font-family="Times,serif" font-size="14.00">count_length([&#39;I&#39;])</text>
</g>
<!-- a&#45;&gt;b -->
<g id="edge1" class="edge">
<title>a&#45;&gt;b</title>
<path fill="none" stroke="black" d="M289.19,-145.29C244.22,-133.76 183.4,-118.17 138.48,-106.65"/>
<polygon fill="black" stroke="black" points="139.56,-103.06 129,-103.96 137.82,-109.84 139.56,-103.06"/>
</g>
<!-- c -->
<g id="node3" class="node">
<title>c</title>
<ellipse fill="none" stroke="black" cx="259.45" cy="-90" rx="86.15" ry="18"/>
<text text-anchor="middle" x="259.45" y="-84.95" font-family="Times,serif" font-size="14.00">count_length([&#39;am&#39;])</text>
</g>
<!-- a&#45;&gt;c -->
<g id="edge2" class="edge">
<title>a&#45;&gt;c</title>
<path fill="none" stroke="black" d="M328.43,-144.05C316.8,-135.11 302.36,-124.01 289.7,-114.27"/>
<polygon fill="black" stroke="black" points="292.34,-111.11 282.28,-107.79 288.07,-116.66 292.34,-111.11"/>
</g>
<!-- d -->
<g id="node4" class="node">
<title>d</title>
<ellipse fill="none" stroke="black" cx="442.45" cy="-90" rx="78.48" ry="18"/>
<text text-anchor="middle" x="442.45" y="-84.95" font-family="Times,serif" font-size="14.00">count_length([&#39;a&#39;])</text>
</g>
<!-- a&#45;&gt;d -->
<g id="edge3" class="edge">
<title>a&#45;&gt;d</title>
<path fill="none" stroke="black" d="M372.72,-144.05C384.56,-135.05 399.29,-123.84 412.15,-114.05"/>
<polygon fill="black" stroke="black" points="413.87,-116.39 419.71,-107.55 409.63,-110.82 413.87,-116.39"/>
</g>
<!-- e -->
<g id="node5" class="node">
<title>e</title>
<ellipse fill="none" stroke="black" cx="639.45" cy="-90" rx="101" ry="18"/>
<text text-anchor="middle" x="639.45" y="-84.95" font-family="Times,serif" font-size="14.00">count_length([&#39;student&#39;])</text>
</g>
<!-- a&#45;&gt;e -->
<g id="edge4" class="edge">
<title>a&#45;&gt;e</title>
<path fill="none" stroke="black" d="M414.59,-145.46C460.97,-134.23 523.55,-119.07 570.91,-107.6"/>
<polygon fill="black" stroke="black" points="571.49,-110.82 580.38,-105.07 569.84,-104.02 571.49,-110.82"/>
</g>
<!-- sum -->
<g id="node6" class="node">
<title>sum</title>
<ellipse fill="none" stroke="black" cx="350.45" cy="-18" rx="27" ry="18"/>
<text text-anchor="middle" x="350.45" y="-12.95" font-family="Times,serif" font-size="14.00">sum</text>
</g>
<!-- b&#45;&gt;sum -->
<g id="edge5" class="edge">
<title>b&#45;&gt;sum</title>
<path fill="none" stroke="black" d="M128.16,-76C182.52,-62.06 267.41,-40.29 315.02,-28.09"/>
<polygon fill="black" stroke="black" points="315.61,-31.29 324.43,-25.42 313.87,-24.51 315.61,-31.29"/>
</g>
<!-- c&#45;&gt;sum -->
<g id="edge6" class="edge">
<title>c&#45;&gt;sum</title>
<path fill="none" stroke="black" d="M281.02,-72.41C294.13,-62.33 310.94,-49.4 324.73,-38.78"/>
<polygon fill="black" stroke="black" points="326.5,-41.07 332.3,-32.2 322.24,-35.52 326.5,-41.07"/>
</g>
<!-- d&#45;&gt;sum -->
<g id="edge7" class="edge">
<title>d&#45;&gt;sum</title>
<path fill="none" stroke="black" d="M420.65,-72.41C407.4,-62.33 390.4,-49.4 376.46,-38.78"/>
<polygon fill="black" stroke="black" points="378.88,-35.47 368.8,-32.2 374.64,-41.04 378.88,-35.47"/>
</g>
<!-- e&#45;&gt;sum -->
<g id="edge8" class="edge">
<title>e&#45;&gt;sum</title>
<path fill="none" stroke="black" d="M581.32,-74.92C523.06,-60.81 435.21,-39.53 386.39,-27.7"/>
<polygon fill="black" stroke="black" points="387.27,-24.07 376.73,-25.12 385.62,-30.88 387.27,-24.07"/>
</g>
</g>
</svg>
