<?xml version="1.0" encoding="UTF-8" standalone="no"?>
<!DOCTYPE svg PUBLIC "-//W3C//DTD SVG 1.1//EN"
 "http://www.w3.org/Graphics/SVG/1.1/DTD/svg11.dtd">
<!-- Generated by graphviz version 8.1.0 (20230707.0739)
 -->
<!-- Title: G Pages: 1 -->
<svg width="297pt" height="398pt"
 viewBox="0.00 0.00 297.00 398.00" xmlns="http://www.w3.org/2000/svg" xmlns:xlink="http://www.w3.org/1999/xlink">
<g id="graph0" class="graph" transform="scale(1 1) rotate(0) translate(4 394)">
<title>G</title>
<polygon fill="white" stroke="none" points="-4,4 -4,-394 293,-394 293,4 -4,4"/>
<!-- a -->
<g id="node1" class="node">
<title>a</title>
<ellipse fill="none" stroke="black" cx="144.5" cy="-372" rx="144.5" ry="18"/>
<text text-anchor="middle" x="144.5" y="-366.95" font-family="Times,serif" font-size="14.00">count_length([&#39;I&#39;, &#39;am&#39;, &#39;a&#39;, &#39;student&#39;])</text>
</g>
<!-- b -->
<g id="node2" class="node">
<title>b</title>
<ellipse fill="none" stroke="black" cx="144.5" cy="-283.5" rx="133.24" ry="18"/>
<text text-anchor="middle" x="144.5" y="-278.45" font-family="Times,serif" font-size="14.00">count_length([&#39;am&#39;, &#39;a&#39;, &#39;student&#39;])</text>
</g>
<!-- a&#45;&gt;b -->
<g id="edge1" class="edge">
<title>a&#45;&gt;b</title>
<path fill="none" stroke="black" d="M144.5,-353.91C144.5,-342.14 144.5,-326.23 144.5,-312.61"/>
<polygon fill="black" stroke="black" points="148,-312.85 144.5,-302.85 141,-312.85 148,-312.85"/>
<text text-anchor="middle" x="169.63" y="-322.7" font-family="Times,serif" font-size="14.00">len(&#39;I&#39;) + </text>
</g>
<!-- c -->
<g id="node3" class="node">
<title>c</title>
<ellipse fill="none" stroke="black" cx="144.5" cy="-195" rx="113.28" ry="18"/>
<text text-anchor="middle" x="144.5" y="-189.95" font-family="Times,serif" font-size="14.00">count_length([&#39;a&#39;, &#39;student&#39;])</text>
</g>
<!-- b&#45;&gt;c -->
<g id="edge2" class="edge">
<title>b&#45;&gt;c</title>
<path fill="none" stroke="black" d="M144.5,-265.41C144.5,-253.64 144.5,-237.73 144.5,-224.11"/>
<polygon fill="black" stroke="black" points="148,-224.35 144.5,-214.35 141,-224.35 148,-224.35"/>
<text text-anchor="middle" x="176" y="-234.2" font-family="Times,serif" font-size="14.00">len(&#39;am&#39;) + </text>
</g>
<!-- d -->
<g id="node4" class="node">
<title>d</title>
<ellipse fill="none" stroke="black" cx="144.5" cy="-106.5" rx="101" ry="18"/>
<text text-anchor="middle" x="144.5" y="-101.45" font-family="Times,serif" font-size="14.00">count_length([&#39;student&#39;])</text>
</g>
<!-- c&#45;&gt;d -->
<g id="edge3" class="edge">
<title>c&#45;&gt;d</title>
<path fill="none" stroke="black" d="M144.5,-176.91C144.5,-165.14 144.5,-149.23 144.5,-135.61"/>
<polygon fill="black" stroke="black" points="148,-135.85 144.5,-125.85 141,-135.85 148,-135.85"/>
<text text-anchor="middle" x="170.38" y="-145.7" font-family="Times,serif" font-size="14.00">len(&#39;a&#39;) + </text>
</g>
<!-- e -->
<g id="node5" class="node">
<title>e</title>
<ellipse fill="none" stroke="black" cx="144.5" cy="-18" rx="71.31" ry="18"/>
<text text-anchor="middle" x="144.5" y="-12.95" font-family="Times,serif" font-size="14.00">count_length([])</text>
</g>
<!-- d&#45;&gt;e -->
<g id="edge4" class="edge">
<title>d&#45;&gt;e</title>
<path fill="none" stroke="black" d="M144.5,-88.41C144.5,-76.64 144.5,-60.73 144.5,-47.11"/>
<polygon fill="black" stroke="black" points="148,-47.35 144.5,-37.35 141,-47.35 148,-47.35"/>
<text text-anchor="middle" x="186.88" y="-57.2" font-family="Times,serif" font-size="14.00">len(&#39;student&#39;) + </text>
</g>
</g>
</svg>
