<?xml version="1.0" encoding="UTF-8" standalone="no"?>
<!DOCTYPE svg PUBLIC "-//W3C//DTD SVG 1.1//EN"
 "http://www.w3.org/Graphics/SVG/1.1/DTD/svg11.dtd">
<!-- Generated by graphviz version 8.1.0 (20230707.0739)
 -->
<!-- Title: G Pages: 1 -->
<svg width="751pt" height="219pt"
 viewBox="0.00 0.00 751.27 218.69" xmlns="http://www.w3.org/2000/svg" xmlns:xlink="http://www.w3.org/1999/xlink">
<g id="graph0" class="graph" transform="scale(1 1) rotate(0) translate(4 214.69)">
<title>G</title>
<polygon fill="white" stroke="none" points="-4,4 -4,-214.69 747.27,-214.69 747.27,4 -4,4"/>
<!-- z -->
<g id="node1" class="node">
<title>z</title>
<polygon fill="none" stroke="black" points="217.49,-122.2 149.49,-122.2 145.49,-118.2 145.49,-71.8 213.49,-71.8 217.49,-75.8 217.49,-122.2"/>
<polyline fill="none" stroke="black" points="213.49,-118.2 145.49,-118.2"/>
<polyline fill="none" stroke="black" points="213.49,-118.2 213.49,-71.8"/>
<polyline fill="none" stroke="black" points="213.49,-118.2 217.49,-122.2"/>
<text text-anchor="middle" x="181.49" y="-91.95" font-family="Times,serif" font-size="14.00">z</text>
</g>
<!-- alignmentNode -->
<!-- z&#45;&gt;alignmentNode -->
<!-- a -->
<g id="node5" class="node">
<title>a</title>
<ellipse fill="none" stroke="black" cx="404.23" cy="-97" rx="27" ry="18"/>
<text text-anchor="middle" x="404.23" y="-91.95" font-family="Times,serif" font-size="14.00">a</text>
</g>
<!-- z&#45;&gt;a -->
<g id="edge5" class="edge">
<title>z&#45;&gt;a</title>
<path fill="none" stroke="black" d="M217.96,-97C258.51,-97 324.59,-97 365.91,-97"/>
<polygon fill="black" stroke="black" points="365.86,-100.5 375.86,-97 365.86,-93.5 365.86,-100.5"/>
<text text-anchor="middle" x="313.48" y="-100.2" font-family="Times,serif" font-size="14.00">z = w_0 x_0 + b</text>
</g>
<!-- bias -->
<g id="node2" class="node">
<title>bias</title>
<ellipse fill="none" stroke="black" cx="181.49" cy="-184" rx="26.69" ry="26.69"/>
<text text-anchor="middle" x="181.49" y="-178.95" font-family="Times,serif" font-size="14.00">bias</text>
</g>
<!-- bias&#45;&gt;z -->
<g id="edge4" class="edge">
<title>bias&#45;&gt;z</title>
<path fill="none" stroke="black" d="M181.49,-157.04C181.49,-149.59 181.49,-141.37 181.49,-133.47"/>
<polygon fill="black" stroke="black" points="184.99,-133.63 181.49,-123.63 177.99,-133.63 184.99,-133.63"/>
<text text-anchor="middle" x="170.24" y="-134.7" font-family="Times,serif" font-size="14.00">b</text>
</g>
<!-- bias&#45;&gt;alignmentNode -->
<!-- x_0 -->
<g id="node4" class="node">
<title>x_0</title>
<ellipse fill="none" stroke="black" cx="27" cy="-97" rx="27" ry="18"/>
<text text-anchor="middle" x="27" y="-91.95" font-family="Times,serif" font-size="14.00">x_0</text>
</g>
<!-- x_0&#45;&gt;z -->
<g id="edge3" class="edge">
<title>x_0&#45;&gt;z</title>
<path fill="none" stroke="black" d="M54.21,-97C76.19,-97 108.11,-97 134.35,-97"/>
<polygon fill="black" stroke="black" points="134.21,-100.5 144.21,-97 134.21,-93.5 134.21,-100.5"/>
<text text-anchor="middle" x="83.62" y="-100.2" font-family="Times,serif" font-size="14.00">w_0</text>
</g>
<!-- output -->
<g id="node6" class="node">
<title>output</title>
<ellipse fill="none" stroke="black" cx="545.19" cy="-97" rx="34.46" ry="18"/>
<text text-anchor="middle" x="545.19" y="-91.95" font-family="Times,serif" font-size="14.00">output</text>
</g>
<!-- a&#45;&gt;output -->
<g id="edge6" class="edge">
<title>a&#45;&gt;output</title>
<path fill="none" stroke="black" d="M431.7,-97C450.83,-97 477.13,-97 499.5,-97"/>
<polygon fill="black" stroke="black" points="499.44,-100.5 509.44,-97 499.44,-93.5 499.44,-100.5"/>
<text text-anchor="middle" x="470.98" y="-100.2" font-family="Times,serif" font-size="14.00">a = g(z)</text>
</g>
<!-- Cost -->
<g id="node7" class="node">
<title>Cost</title>
<ellipse fill="none" stroke="black" cx="715.46" cy="-97" rx="27.81" ry="18"/>
<text text-anchor="middle" x="715.46" y="-91.95" font-family="Times,serif" font-size="14.00">Cost</text>
</g>
<!-- output&#45;&gt;Cost -->
<g id="edge7" class="edge">
<title>output&#45;&gt;Cost</title>
<path fill="none" stroke="black" d="M579.84,-97C607.7,-97 647.27,-97 676.3,-97"/>
<polygon fill="black" stroke="black" points="676.26,-100.5 686.26,-97 676.26,-93.5 676.26,-100.5"/>
<text text-anchor="middle" x="633.66" y="-100.2" font-family="Times,serif" font-size="14.00">C = (a &#45; y)^2</text>
</g>
</g>
</svg>
