<?xml version="1.0" encoding="UTF-8" standalone="no"?>
<!DOCTYPE svg PUBLIC "-//W3C//DTD SVG 1.1//EN"
 "http://www.w3.org/Graphics/SVG/1.1/DTD/svg11.dtd">
<!-- Generated by graphviz version 8.1.0 (20230707.0739)
 -->
<!-- Title: G Pages: 1 -->
<svg width="726pt" height="243pt"
 viewBox="0.00 0.00 725.75 243.00" xmlns="http://www.w3.org/2000/svg" xmlns:xlink="http://www.w3.org/1999/xlink">
<g id="graph0" class="graph" transform="scale(1 1) rotate(0) translate(4 239)">
<title>G</title>
<polygon fill="white" stroke="none" points="-4,4 -4,-239 721.75,-239 721.75,4 -4,4"/>
<!-- inputs -->
<g id="node1" class="node">
<title>inputs</title>
<polygon fill="none" stroke="black" points="54,-82 0,-82 0,-46 54,-46 54,-82"/>
<text text-anchor="middle" x="27" y="-58.95" font-family="Times,serif" font-size="14.00">inputs</text>
</g>
<!-- fever -->
<g id="node2" class="node">
<title>fever</title>
<polygon fill="none" stroke="black" points="201,-82 147,-82 147,-46 201,-46 201,-82"/>
<text text-anchor="middle" x="174" y="-58.95" font-family="Times,serif" font-size="14.00">fever</text>
</g>
<!-- inputs&#45;&gt;fever -->
<g id="edge1" class="edge">
<title>inputs&#45;&gt;fever</title>
<path fill="none" stroke="black" d="M54.26,-64C77.15,-64 110.6,-64 136.16,-64"/>
<polygon fill="black" stroke="black" points="135.94,-67.5 145.94,-64 135.94,-60.5 135.94,-67.5"/>
<text text-anchor="middle" x="100.5" y="-67.2" font-family="Times,serif" font-size="14.00">symptoms</text>
</g>
<!-- cough -->
<g id="node3" class="node">
<title>cough</title>
<polygon fill="none" stroke="black" points="309,-82 255,-82 255,-46 309,-46 309,-82"/>
<text text-anchor="middle" x="282" y="-58.95" font-family="Times,serif" font-size="14.00">cough</text>
</g>
<!-- fever&#45;&gt;cough -->
<g id="edge2" class="edge">
<title>fever&#45;&gt;cough</title>
<path fill="none" stroke="black" d="M201.47,-64C214.35,-64 230.03,-64 244.05,-64"/>
<polygon fill="black" stroke="black" points="243.86,-67.5 253.86,-64 243.86,-60.5 243.86,-67.5"/>
<text text-anchor="middle" x="228" y="-67.2" font-family="Times,serif" font-size="14.00">yes</text>
</g>
<!-- sore_throat -->
<g id="node4" class="node">
<title>sore_throat</title>
<polygon fill="none" stroke="black" points="439.75,-135 363,-135 363,-99 439.75,-99 439.75,-135"/>
<text text-anchor="middle" x="401.38" y="-111.95" font-family="Times,serif" font-size="14.00">sore_throat</text>
</g>
<!-- cough&#45;&gt;sore_throat -->
<g id="edge3" class="edge">
<title>cough&#45;&gt;sore_throat</title>
<path fill="none" stroke="black" d="M309.34,-75.89C322.08,-81.65 337.78,-88.74 352.53,-95.4"/>
<polygon fill="black" stroke="black" points="350.99,-98.99 361.55,-99.92 353.87,-92.61 350.99,-98.99"/>
<text text-anchor="middle" x="336" y="-93.2" font-family="Times,serif" font-size="14.00">no</text>
</g>
<!-- flu -->
<g id="node5" class="node">
<title>flu</title>
<polygon fill="none" stroke="black" points="428.38,-36 374.38,-36 374.38,0 428.38,0 428.38,-36"/>
<text text-anchor="middle" x="401.38" y="-12.95" font-family="Times,serif" font-size="14.00">flu</text>
</g>
<!-- cough&#45;&gt;flu -->
<g id="edge4" class="edge">
<title>cough&#45;&gt;flu</title>
<path fill="none" stroke="black" d="M305.73,-45.7C312.29,-41.15 319.66,-36.67 327,-33.5 338.44,-28.57 351.58,-25.15 363.55,-22.82"/>
<polygon fill="black" stroke="black" points="363.89,-26.14 373.14,-20.96 362.68,-19.24 363.89,-26.14"/>
<text text-anchor="middle" x="336" y="-37.2" font-family="Times,serif" font-size="14.00">yes</text>
</g>
<!-- unknown -->
<g id="node6" class="node">
<title>unknown</title>
<polygon fill="none" stroke="black" points="700.5,-169 634.25,-169 634.25,-133 700.5,-133 700.5,-169"/>
<text text-anchor="middle" x="667.38" y="-145.95" font-family="Times,serif" font-size="14.00">unknown</text>
</g>
<!-- cough&#45;&gt;unknown -->
<g id="edge5" class="edge">
<title>cough&#45;&gt;unknown</title>
<path fill="none" stroke="black" d="M309.33,-58.7C367.05,-48.6 506.93,-32.54 599,-92 612.71,-100.85 605.39,-112.53 617,-124 619.36,-126.33 621.95,-128.51 624.69,-130.55"/>
<polygon fill="black" stroke="black" points="622.49,-133.96 632.76,-136.56 626.36,-128.12 622.49,-133.96"/>
<text text-anchor="middle" x="466.75" y="-54.2" font-family="Times,serif" font-size="14.00">no</text>
</g>
<!-- vomitting -->
<g id="node7" class="node">
<title>vomitting</title>
<polygon fill="none" stroke="black" points="563,-135 493.75,-135 493.75,-99 563,-99 563,-135"/>
<text text-anchor="middle" x="528.38" y="-111.95" font-family="Times,serif" font-size="14.00">vomitting</text>
</g>
<!-- sore_throat&#45;&gt;vomitting -->
<g id="edge6" class="edge">
<title>sore_throat&#45;&gt;vomitting</title>
<path fill="none" stroke="black" d="M440.22,-117C453.6,-117 468.78,-117 482.67,-117"/>
<polygon fill="black" stroke="black" points="482.48,-120.5 492.48,-117 482.48,-113.5 482.48,-120.5"/>
<text text-anchor="middle" x="466.75" y="-120.2" font-family="Times,serif" font-size="14.00">yes</text>
</g>
<!-- rash -->
<g id="node8" class="node">
<title>rash</title>
<polygon fill="none" stroke="black" points="555.38,-195 501.38,-195 501.38,-159 555.38,-159 555.38,-195"/>
<text text-anchor="middle" x="528.38" y="-171.95" font-family="Times,serif" font-size="14.00">rash</text>
</g>
<!-- sore_throat&#45;&gt;rash -->
<g id="edge7" class="edge">
<title>sore_throat&#45;&gt;rash</title>
<path fill="none" stroke="black" d="M440.22,-135.16C456.52,-142.99 475.49,-152.1 491.57,-159.81"/>
<polygon fill="black" stroke="black" points="489.62,-163.24 500.15,-164.41 492.65,-156.93 489.62,-163.24"/>
<text text-anchor="middle" x="466.75" y="-153.2" font-family="Times,serif" font-size="14.00">no</text>
</g>
<!-- vomitting&#45;&gt;unknown -->
<g id="edge9" class="edge">
<title>vomitting&#45;&gt;unknown</title>
<path fill="none" stroke="black" d="M563.24,-125.4C581.34,-129.9 603.82,-135.48 623.17,-140.28"/>
<polygon fill="black" stroke="black" points="622.29,-143.91 632.84,-142.93 623.98,-137.12 622.29,-143.91"/>
<text text-anchor="middle" x="590" y="-137.2" font-family="Times,serif" font-size="14.00">no</text>
</g>
<!-- food_poisoning -->
<g id="node9" class="node">
<title>food_poisoning</title>
<polygon fill="none" stroke="black" points="717.75,-115 617,-115 617,-79 717.75,-79 717.75,-115"/>
<text text-anchor="middle" x="667.38" y="-91.95" font-family="Times,serif" font-size="14.00">food_poisoning</text>
</g>
<!-- vomitting&#45;&gt;food_poisoning -->
<g id="edge8" class="edge">
<title>vomitting&#45;&gt;food_poisoning</title>
<path fill="none" stroke="black" d="M563.38,-103.06C569.17,-101.19 575.19,-99.56 581,-98.5 589.01,-97.04 597.51,-96.13 605.93,-95.61"/>
<polygon fill="black" stroke="black" points="606.05,-99.07 615.89,-95.14 605.75,-92.07 606.05,-99.07"/>
<text text-anchor="middle" x="590" y="-101.2" font-family="Times,serif" font-size="14.00">yes</text>
</g>
<!-- rash&#45;&gt;unknown -->
<g id="edge11" class="edge">
<title>rash&#45;&gt;unknown</title>
<path fill="none" stroke="black" d="M555.79,-171.99C574.81,-168.38 600.91,-163.42 622.97,-159.24"/>
<polygon fill="black" stroke="black" points="623.58,-162.49 632.76,-157.19 622.28,-155.62 623.58,-162.49"/>
<text text-anchor="middle" x="590" y="-170.2" font-family="Times,serif" font-size="14.00">no</text>
</g>
<!-- measles -->
<g id="node10" class="node">
<title>measles</title>
<polygon fill="none" stroke="black" points="697.12,-235 637.62,-235 637.62,-199 697.12,-199 697.12,-235"/>
<text text-anchor="middle" x="667.38" y="-211.95" font-family="Times,serif" font-size="14.00">measles</text>
</g>
<!-- rash&#45;&gt;measles -->
<g id="edge10" class="edge">
<title>rash&#45;&gt;measles</title>
<path fill="none" stroke="black" d="M555.79,-184.71C575.93,-190.59 603.99,-198.78 626.8,-205.45"/>
<polygon fill="black" stroke="black" points="625.61,-209.04 636.2,-208.48 627.58,-202.32 625.61,-209.04"/>
<text text-anchor="middle" x="590" y="-200.2" font-family="Times,serif" font-size="14.00">yes</text>
</g>
</g>
</svg>
