<?xml version="1.0" encoding="UTF-8" standalone="no"?>
<!DOCTYPE svg PUBLIC "-//W3C//DTD SVG 1.1//EN"
 "http://www.w3.org/Graphics/SVG/1.1/DTD/svg11.dtd">
<!-- Generated by graphviz version 8.1.0 (20230707.0739)
 -->
<!-- Title: G Pages: 1 -->
<svg width="478pt" height="203pt"
 viewBox="0.00 0.00 477.66 203.19" xmlns="http://www.w3.org/2000/svg" xmlns:xlink="http://www.w3.org/1999/xlink">
<g id="graph0" class="graph" transform="scale(1 1) rotate(0) translate(4 199.19)">
<title>G</title>
<polygon fill="white" stroke="none" points="-4,4 -4,-199.19 473.66,-199.19 473.66,4 -4,4"/>
<!-- x_0 -->
<g id="node1" class="node">
<title>x_0</title>
<ellipse fill="none" stroke="black" cx="27" cy="-159.69" rx="27" ry="18"/>
<text text-anchor="middle" x="27" y="-154.64" font-family="Times,serif" font-size="14.00">3</text>
</g>
<!-- a_0_0 -->
<g id="node3" class="node">
<title>a_0_0</title>
<ellipse fill="none" stroke="black" cx="157.72" cy="-99.69" rx="53.4" ry="18"/>
<text text-anchor="middle" x="157.72" y="-94.64" font-family="Times,serif" font-size="14.00">b=8, ReLU</text>
</g>
<!-- x_0&#45;&gt;a_0_0 -->
<g id="edge1" class="edge">
<title>x_0&#45;&gt;a_0_0</title>
<path fill="none" stroke="black" d="M51.5,-151.35C61.46,-147.55 73.09,-142.77 83.25,-137.69 91.64,-133.5 93.03,-131.2 101.25,-126.69 105.82,-124.19 110.67,-121.66 115.51,-119.21"/>
<polygon fill="black" stroke="black" points="116.96,-121.9 124.35,-114.32 113.84,-115.63 116.96,-121.9"/>
<text text-anchor="middle" x="77.62" y="-144.89" font-family="Times,serif" font-size="14.00">&#45;2</text>
</g>
<!-- a_0_1 -->
<g id="node4" class="node">
<title>a_0_1</title>
<ellipse fill="none" stroke="black" cx="157.72" cy="-153.69" rx="56.47" ry="18"/>
<text text-anchor="middle" x="157.72" y="-148.64" font-family="Times,serif" font-size="14.00">b=&#45;2, ReLU</text>
</g>
<!-- x_0&#45;&gt;a_0_1 -->
<g id="edge2" class="edge">
<title>x_0&#45;&gt;a_0_1</title>
<path fill="none" stroke="black" d="M49.41,-170.4C56.43,-173.37 64.39,-176.2 72,-177.69 86.97,-180.64 103.14,-177.64 117.3,-172.89"/>
<polygon fill="black" stroke="black" points="118.07,-175.96 126.21,-169.17 115.62,-169.4 118.07,-175.96"/>
<text text-anchor="middle" x="77.62" y="-181.89" font-family="Times,serif" font-size="14.00">5</text>
</g>
<!-- a_0_2 -->
<g id="node5" class="node">
<title>a_0_2</title>
<ellipse fill="none" stroke="black" cx="157.72" cy="-45.69" rx="53.4" ry="18"/>
<text text-anchor="middle" x="157.72" y="-40.64" font-family="Times,serif" font-size="14.00">b=4, ReLU</text>
</g>
<!-- x_0&#45;&gt;a_0_2 -->
<g id="edge3" class="edge">
<title>x_0&#45;&gt;a_0_2</title>
<path fill="none" stroke="black" d="M34.05,-141.88C40.82,-124.34 53.35,-97.83 72,-81.19 81.58,-72.65 93.5,-65.97 105.36,-60.83"/>
<polygon fill="black" stroke="black" points="106.27,-63.83 114.24,-56.86 103.66,-57.34 106.27,-63.83"/>
<text text-anchor="middle" x="77.62" y="-84.89" font-family="Times,serif" font-size="14.00">3</text>
</g>
<!-- x_1 -->
<g id="node2" class="node">
<title>x_1</title>
<ellipse fill="none" stroke="black" cx="27" cy="-39.69" rx="27" ry="18"/>
<text text-anchor="middle" x="27" y="-34.64" font-family="Times,serif" font-size="14.00">5</text>
</g>
<!-- x_1&#45;&gt;a_0_0 -->
<g id="edge4" class="edge">
<title>x_1&#45;&gt;a_0_0</title>
<path fill="none" stroke="black" d="M53.69,-35.26C63.55,-34.82 74.52,-35.97 83.25,-41.19 97.09,-49.48 89.48,-61.68 101.25,-72.69 104.37,-75.62 107.87,-78.28 111.55,-80.7"/>
<polygon fill="black" stroke="black" points="109.56,-84.18 119.96,-86.22 113.1,-78.14 109.56,-84.18"/>
<text text-anchor="middle" x="77.62" y="-44.89" font-family="Times,serif" font-size="14.00">8</text>
</g>
<!-- x_1&#45;&gt;a_0_1 -->
<g id="edge5" class="edge">
<title>x_1&#45;&gt;a_0_1</title>
<path fill="none" stroke="black" d="M38.2,-56.32C50.83,-75.66 74.03,-107.39 101.25,-126.69 104.94,-129.31 108.91,-131.8 112.98,-134.12"/>
<polygon fill="black" stroke="black" points="111.1,-137.62 121.57,-139.26 114.41,-131.45 111.1,-137.62"/>
<text text-anchor="middle" x="77.62" y="-113.89" font-family="Times,serif" font-size="14.00">&#45;2</text>
</g>
<!-- x_1&#45;&gt;a_0_2 -->
<g id="edge6" class="edge">
<title>x_1&#45;&gt;a_0_2</title>
<path fill="none" stroke="black" d="M39.47,-23.43C49.87,-10.88 66.13,3.58 83.25,-1.19 98.85,-5.55 114.44,-14.22 127.22,-22.76"/>
<polygon fill="black" stroke="black" points="124.79,-26.03 134.99,-28.9 128.8,-20.3 124.79,-26.03"/>
<text text-anchor="middle" x="77.62" y="-4.89" font-family="Times,serif" font-size="14.00">4</text>
</g>
<!-- a_1_0 -->
<g id="node6" class="node">
<title>a_1_0</title>
<ellipse fill="none" stroke="black" cx="310.34" cy="-99.69" rx="53.4" ry="18"/>
<text text-anchor="middle" x="310.34" y="-94.64" font-family="Times,serif" font-size="14.00">b=3, ReLU</text>
</g>
<!-- a_0_0&#45;&gt;a_1_0 -->
<g id="edge7" class="edge">
<title>a_0_0&#45;&gt;a_1_0</title>
<path fill="none" stroke="black" d="M211.4,-99.69C222.52,-99.69 234.37,-99.69 245.84,-99.69"/>
<polygon fill="black" stroke="black" points="245.69,-103.19 255.69,-99.69 245.69,-96.19 245.69,-103.19"/>
<text text-anchor="middle" x="235.56" y="-102.89" font-family="Times,serif" font-size="14.00">3</text>
</g>
<!-- a_0_1&#45;&gt;a_1_0 -->
<g id="edge8" class="edge">
<title>a_0_1&#45;&gt;a_1_0</title>
<path fill="none" stroke="black" d="M196.34,-140.21C216.41,-133.01 241.28,-124.09 262.59,-116.46"/>
<polygon fill="black" stroke="black" points="263.49,-119.49 271.72,-112.82 261.12,-112.9 263.49,-119.49"/>
<text text-anchor="middle" x="235.56" y="-129.89" font-family="Times,serif" font-size="14.00">2</text>
</g>
<!-- a_0_2&#45;&gt;a_1_0 -->
<g id="edge9" class="edge">
<title>a_0_2&#45;&gt;a_1_0</title>
<path fill="none" stroke="black" d="M195.18,-58.77C215.38,-66.01 240.72,-75.09 262.39,-82.86"/>
<polygon fill="black" stroke="black" points="261.1,-86.48 271.69,-86.56 263.46,-79.89 261.1,-86.48"/>
<text text-anchor="middle" x="235.56" y="-77.89" font-family="Times,serif" font-size="14.00">8</text>
</g>
<!-- output -->
<g id="node7" class="node">
<title>output</title>
<ellipse fill="none" stroke="black" cx="435.2" cy="-99.69" rx="34.46" ry="18"/>
<text text-anchor="middle" x="435.2" y="-94.64" font-family="Times,serif" font-size="14.00">output</text>
</g>
<!-- a_1_0&#45;&gt;output -->
<g id="edge10" class="edge">
<title>a_1_0&#45;&gt;output</title>
<path fill="none" stroke="black" d="M364.15,-99.69C372.56,-99.69 381.19,-99.69 389.38,-99.69"/>
<polygon fill="black" stroke="black" points="389.24,-103.19 399.24,-99.69 389.24,-96.19 389.24,-103.19"/>
</g>
</g>
</svg>
