<?xml version="1.0" encoding="UTF-8" standalone="no"?>
<!DOCTYPE svg PUBLIC "-//W3C//DTD SVG 1.1//EN"
 "http://www.w3.org/Graphics/SVG/1.1/DTD/svg11.dtd">
<!-- Generated by graphviz version 8.1.0 (20230707.0739)
 -->
<!-- Title: G Pages: 1 -->
<svg width="272pt" height="44pt"
 viewBox="0.00 0.00 272.28 44.00" xmlns="http://www.w3.org/2000/svg" xmlns:xlink="http://www.w3.org/1999/xlink">
<g id="graph0" class="graph" transform="scale(1 1) rotate(0) translate(4 40)">
<title>G</title>
<polygon fill="white" stroke="none" points="-4,4 -4,-40 268.28,-40 268.28,4 -4,4"/>
<!-- x -->
<g id="node1" class="node">
<title>x</title>
<ellipse fill="none" stroke="black" cx="27" cy="-18" rx="27" ry="18"/>
<text text-anchor="middle" x="27" y="-12.95" font-family="Times,serif" font-size="14.00">x</text>
</g>
<!-- NotGate -->
<g id="node2" class="node">
<title>NotGate</title>
<ellipse fill="none" stroke="black" cx="132.14" cy="-18" rx="42.14" ry="18"/>
<text text-anchor="middle" x="132.14" y="-12.95" font-family="Times,serif" font-size="14.00">NotGate</text>
</g>
<!-- x&#45;&gt;NotGate -->
<g id="edge1" class="edge">
<title>x&#45;&gt;NotGate</title>
<path fill="none" stroke="black" d="M54.29,-18C61.85,-18 70.36,-18 78.9,-18"/>
<polygon fill="black" stroke="black" points="78.66,-21.5 88.66,-18 78.66,-14.5 78.66,-21.5"/>
</g>
<!-- y -->
<g id="node3" class="node">
<title>y</title>
<ellipse fill="none" stroke="black" cx="237.28" cy="-18" rx="27" ry="18"/>
<text text-anchor="middle" x="237.28" y="-12.95" font-family="Times,serif" font-size="14.00">y</text>
</g>
<!-- NotGate&#45;&gt;y -->
<g id="edge2" class="edge">
<title>NotGate&#45;&gt;y</title>
<path fill="none" stroke="black" d="M174.5,-18C182.65,-18 191.15,-18 199.15,-18"/>
<polygon fill="black" stroke="black" points="199.04,-21.5 209.04,-18 199.04,-14.5 199.04,-21.5"/>
</g>
</g>
</svg>
