<?xml version="1.0" encoding="UTF-8" standalone="no"?>
<!DOCTYPE svg PUBLIC "-//W3C//DTD SVG 1.1//EN"
 "http://www.w3.org/Graphics/SVG/1.1/DTD/svg11.dtd">
<!-- Generated by graphviz version 8.1.0 (20230707.0739)
 -->
<!-- Title: G Pages: 1 -->
<svg width="271pt" height="44pt"
 viewBox="0.00 0.00 270.82 44.00" xmlns="http://www.w3.org/2000/svg" xmlns:xlink="http://www.w3.org/1999/xlink">
<g id="graph0" class="graph" transform="scale(1 1) rotate(0) translate(4 40)">
<title>G</title>
<polygon fill="white" stroke="none" points="-4,4 -4,-40 266.82,-40 266.82,4 -4,4"/>
<!-- model -->
<g id="node1" class="node">
<title>model</title>
<polygon fill="none" stroke="black" points="156.88,-36 106.88,-36 102.88,-32 102.88,0 152.88,0 156.88,-4 156.88,-36"/>
<polyline fill="none" stroke="black" points="152.88,-32 102.88,-32"/>
<polyline fill="none" stroke="black" points="152.88,-32 152.88,0"/>
<polyline fill="none" stroke="black" points="152.88,-32 156.88,-36"/>
<text text-anchor="middle" x="129.88" y="-12.95" font-family="Times,serif" font-size="14.00">model</text>
</g>
<!-- results -->
<g id="node3" class="node">
<title>results</title>
<ellipse fill="none" stroke="black" cx="227.85" cy="-18" rx="34.97" ry="18"/>
<text text-anchor="middle" x="227.85" y="-12.95" font-family="Times,serif" font-size="14.00">results</text>
</g>
<!-- model&#45;&gt;results -->
<g id="edge2" class="edge">
<title>model&#45;&gt;results</title>
<path fill="none" stroke="black" d="M157.36,-18C164.92,-18 173.38,-18 181.72,-18"/>
<polygon fill="black" stroke="black" points="181.54,-21.5 191.54,-18 181.54,-14.5 181.54,-21.5"/>
</g>
<!-- inputs -->
<g id="node2" class="node">
<title>inputs</title>
<ellipse fill="none" stroke="black" cx="33.44" cy="-18" rx="33.44" ry="18"/>
<text text-anchor="middle" x="33.44" y="-12.95" font-family="Times,serif" font-size="14.00">inputs</text>
</g>
<!-- inputs&#45;&gt;model -->
<g id="edge1" class="edge">
<title>inputs&#45;&gt;model</title>
<path fill="none" stroke="black" d="M67.2,-18C75.02,-18 83.43,-18 91.44,-18"/>
<polygon fill="black" stroke="black" points="91.41,-21.5 101.41,-18 91.41,-14.5 91.41,-21.5"/>
</g>
</g>
</svg>
