<?xml version="1.0" encoding="UTF-8" standalone="no"?>
<!DOCTYPE svg PUBLIC "-//W3C//DTD SVG 1.1//EN"
 "http://www.w3.org/Graphics/SVG/1.1/DTD/svg11.dtd">
<!-- Generated by graphviz version 8.1.0 (20230707.0739)
 -->
<!-- Title: G Pages: 1 -->
<svg width="270pt" height="44pt"
 viewBox="0.00 0.00 270.02 44.00" xmlns="http://www.w3.org/2000/svg" xmlns:xlink="http://www.w3.org/1999/xlink">
<g id="graph0" class="graph" transform="scale(1 1) rotate(0) translate(4 40)">
<title>G</title>
<polygon fill="white" stroke="none" points="-4,4 -4,-40 266.02,-40 266.02,4 -4,4"/>
<!-- program -->
<g id="node1" class="node">
<title>program</title>
<polygon fill="none" stroke="black" points="160.83,-36 102.33,-36 98.33,-32 98.33,0 156.83,0 160.83,-4 160.83,-36"/>
<polyline fill="none" stroke="black" points="156.83,-32 98.33,-32"/>
<polyline fill="none" stroke="black" points="156.83,-32 156.83,0"/>
<polyline fill="none" stroke="black" points="156.83,-32 160.83,-36"/>
<text text-anchor="middle" x="129.58" y="-11.82" font-family="Times,serif" font-size="14.00">program</text>
</g>
<!-- results -->
<g id="node3" class="node">
<title>results</title>
<ellipse fill="none" stroke="black" cx="229.43" cy="-18" rx="32.6" ry="18"/>
<text text-anchor="middle" x="229.43" y="-11.82" font-family="Times,serif" font-size="14.00">results</text>
</g>
<!-- program&#45;&gt;results -->
<g id="edge2" class="edge">
<title>program&#45;&gt;results</title>
<path fill="none" stroke="black" d="M161.27,-18C168.98,-18 177.39,-18 185.57,-18"/>
<polygon fill="black" stroke="black" points="185.49,-21.5 195.49,-18 185.49,-14.5 185.49,-21.5"/>
</g>
<!-- inputs -->
<g id="node2" class="node">
<title>inputs</title>
<ellipse fill="none" stroke="black" cx="31.17" cy="-18" rx="31.17" ry="18"/>
<text text-anchor="middle" x="31.17" y="-11.82" font-family="Times,serif" font-size="14.00">inputs</text>
</g>
<!-- inputs&#45;&gt;program -->
<g id="edge1" class="edge">
<title>inputs&#45;&gt;program</title>
<path fill="none" stroke="black" d="M62.67,-18C70.41,-18 78.85,-18 87.04,-18"/>
<polygon fill="black" stroke="black" points="86.94,-21.5 96.94,-18 86.94,-14.5 86.94,-21.5"/>
</g>
</g>
</svg>
