<?xml version="1.0" encoding="UTF-8" standalone="no"?>
<!DOCTYPE svg PUBLIC "-//W3C//DTD SVG 1.1//EN"
 "http://www.w3.org/Graphics/SVG/1.1/DTD/svg11.dtd">
<!-- Generated by graphviz version 8.1.0 (20230707.0739)
 -->
<!-- Title: G Pages: 1 -->
<svg width="262pt" height="98pt"
 viewBox="0.00 0.00 261.95 98.00" xmlns="http://www.w3.org/2000/svg" xmlns:xlink="http://www.w3.org/1999/xlink">
<g id="graph0" class="graph" transform="scale(1 1) rotate(0) translate(4 94)">
<title>G</title>
<polygon fill="white" stroke="none" points="-4,4 -4,-94 257.95,-94 257.95,4 -4,4"/>
<!-- training -->
<g id="node1" class="node">
<title>training</title>
<polygon fill="none" stroke="black" points="163.95,-63 109.95,-63 105.95,-59 105.95,-27 159.95,-27 163.95,-31 163.95,-63"/>
<polyline fill="none" stroke="black" points="159.95,-59 105.95,-59"/>
<polyline fill="none" stroke="black" points="159.95,-59 159.95,-27"/>
<polyline fill="none" stroke="black" points="159.95,-59 163.95,-63"/>
<text text-anchor="middle" x="134.95" y="-39.95" font-family="Times,serif" font-size="14.00">training</text>
</g>
<!-- model -->
<g id="node2" class="node">
<title>model</title>
<polygon fill="none" stroke="black" points="253.95,-63 203.95,-63 199.95,-59 199.95,-27 249.95,-27 253.95,-31 253.95,-63"/>
<polyline fill="none" stroke="black" points="249.95,-59 199.95,-59"/>
<polyline fill="none" stroke="black" points="249.95,-59 249.95,-27"/>
<polyline fill="none" stroke="black" points="249.95,-59 253.95,-63"/>
<text text-anchor="middle" x="226.95" y="-39.95" font-family="Times,serif" font-size="14.00">model</text>
</g>
<!-- training&#45;&gt;model -->
<g id="edge2" class="edge">
<title>training&#45;&gt;model</title>
<path fill="none" stroke="black" d="M164.42,-45C172.14,-45 180.61,-45 188.74,-45"/>
<polygon fill="black" stroke="black" points="188.49,-48.5 198.49,-45 188.49,-41.5 188.49,-48.5"/>
</g>
<!-- inputs -->
<g id="node3" class="node">
<title>inputs</title>
<ellipse fill="none" stroke="black" cx="34.97" cy="-72" rx="33.44" ry="18"/>
<text text-anchor="middle" x="34.97" y="-66.95" font-family="Times,serif" font-size="14.00">inputs</text>
</g>
<!-- inputs&#45;&gt;training -->
<g id="edge1" class="edge">
<title>inputs&#45;&gt;training</title>
<path fill="none" stroke="black" d="M65.37,-63.9C74.72,-61.32 85.22,-58.43 95.13,-55.7"/>
<polygon fill="black" stroke="black" points="95.87,-58.85 104.58,-52.82 94.01,-52.1 95.87,-58.85"/>
</g>
<!-- results -->
<g id="node4" class="node">
<title>results</title>
<ellipse fill="none" stroke="black" cx="34.97" cy="-18" rx="34.97" ry="18"/>
<text text-anchor="middle" x="34.97" y="-12.95" font-family="Times,serif" font-size="14.00">results</text>
</g>
<!-- results&#45;&gt;training -->
<g id="edge3" class="edge">
<title>results&#45;&gt;training</title>
<path fill="none" stroke="black" d="M66.44,-26.39C75.5,-28.89 85.55,-31.66 95.07,-34.29"/>
<polygon fill="black" stroke="black" points="93.94,-37.88 104.51,-37.16 95.8,-31.13 93.94,-37.88"/>
</g>
</g>
</svg>
