<?xml version="1.0" encoding="UTF-8" standalone="no"?>
<!DOCTYPE svg PUBLIC "-//W3C//DTD SVG 1.1//EN"
 "http://www.w3.org/Graphics/SVG/1.1/DTD/svg11.dtd">
<!-- Generated by graphviz version 8.1.0 (20230707.0739)
 -->
<!-- Title: G Pages: 1 -->
<svg width="270pt" height="98pt"
 viewBox="0.00 0.00 270.38 98.00" xmlns="http://www.w3.org/2000/svg" xmlns:xlink="http://www.w3.org/1999/xlink">
<g id="graph0" class="graph" transform="scale(1 1) rotate(0) translate(4 94)">
<title>G</title>
<polygon fill="white" stroke="none" points="-4,4 -4,-94 266.38,-94 266.38,4 -4,4"/>
<!-- input -->
<g id="node1" class="node">
<title>input</title>
<ellipse fill="none" stroke="black" cx="29.86" cy="-72" rx="29.86" ry="18"/>
<text text-anchor="middle" x="29.86" y="-66.95" font-family="Times,serif" font-size="14.00">input</text>
</g>
<!-- n1 -->
<g id="node2" class="node">
<title>n1</title>
<ellipse fill="none" stroke="black" cx="129.46" cy="-45" rx="27" ry="18"/>
<text text-anchor="middle" x="129.46" y="-39.95" font-family="Times,serif" font-size="14.00">n1</text>
</g>
<!-- input&#45;&gt;n1 -->
<g id="edge1" class="edge">
<title>input&#45;&gt;n1</title>
<path fill="none" stroke="black" d="M57.53,-64.62C68.68,-61.54 81.78,-57.91 93.67,-54.62"/>
<polygon fill="black" stroke="black" points="94.46,-57.76 103.16,-51.72 92.59,-51.01 94.46,-57.76"/>
<text text-anchor="middle" x="81.09" y="-61.2" font-family="Times,serif" font-size="14.00">3</text>
</g>
<!-- output -->
<g id="node4" class="node">
<title>output</title>
<ellipse fill="none" stroke="black" cx="227.92" cy="-45" rx="34.46" ry="18"/>
<text text-anchor="middle" x="227.92" y="-39.95" font-family="Times,serif" font-size="14.00">output</text>
</g>
<!-- n1&#45;&gt;output -->
<g id="edge3" class="edge">
<title>n1&#45;&gt;output</title>
<path fill="none" stroke="black" d="M156.82,-45C164.66,-45 173.49,-45 182.16,-45"/>
<polygon fill="black" stroke="black" points="181.98,-48.5 191.98,-45 181.98,-41.5 181.98,-48.5"/>
</g>
<!-- bias -->
<g id="node3" class="node">
<title>bias</title>
<ellipse fill="none" stroke="black" cx="29.86" cy="-18" rx="27" ry="18"/>
<text text-anchor="middle" x="29.86" y="-12.95" font-family="Times,serif" font-size="14.00">bias</text>
</g>
<!-- bias&#45;&gt;n1 -->
<g id="edge2" class="edge">
<title>bias&#45;&gt;n1</title>
<path fill="none" stroke="black" d="M54.98,-24.67C66.63,-27.89 80.81,-31.82 93.6,-35.36"/>
<polygon fill="black" stroke="black" points="92.36,-38.92 102.93,-38.22 94.23,-32.18 92.36,-38.92"/>
<text text-anchor="middle" x="81.09" y="-36.2" font-family="Times,serif" font-size="14.00">8</text>
</g>
</g>
</svg>
