<?xml version="1.0" encoding="UTF-8" standalone="no"?>
<!DOCTYPE svg PUBLIC "-//W3C//DTD SVG 1.1//EN"
 "http://www.w3.org/Graphics/SVG/1.1/DTD/svg11.dtd">
<!-- Generated by graphviz version 8.1.0 (20230707.0739)
 -->
<!-- Title: G Pages: 1 -->
<svg width="651pt" height="219pt"
 viewBox="0.00 0.00 650.66 218.69" xmlns="http://www.w3.org/2000/svg" xmlns:xlink="http://www.w3.org/1999/xlink">
<g id="graph0" class="graph" transform="scale(1 1) rotate(0) translate(4 214.69)">
<title>G</title>
<polygon fill="white" stroke="none" points="-4,4 -4,-214.69 646.66,-214.69 646.66,4 -4,4"/>
<!-- z -->
<g id="node1" class="node">
<title>z</title>
<polygon fill="none" stroke="black" points="217.49,-122.2 149.49,-122.2 145.49,-118.2 145.49,-71.8 213.49,-71.8 217.49,-75.8 217.49,-122.2"/>
<polyline fill="none" stroke="black" points="213.49,-118.2 145.49,-118.2"/>
<polyline fill="none" stroke="black" points="213.49,-118.2 213.49,-71.8"/>
<polyline fill="none" stroke="black" points="213.49,-118.2 217.49,-122.2"/>
<text text-anchor="middle" x="181.49" y="-91.95" font-family="Times,serif" font-size="14.00">z</text>
</g>
<!-- alignmentNode -->
<!-- z&#45;&gt;alignmentNode -->
<!-- a -->
<g id="node6" class="node">
<title>a</title>
<ellipse fill="none" stroke="black" cx="467.23" cy="-97" rx="27" ry="18"/>
<text text-anchor="middle" x="467.23" y="-91.95" font-family="Times,serif" font-size="14.00">a</text>
</g>
<!-- z&#45;&gt;a -->
<g id="edge6" class="edge">
<title>z&#45;&gt;a</title>
<path fill="none" stroke="black" d="M217.85,-97C271.8,-97 374.18,-97 429.15,-97"/>
<polygon fill="black" stroke="black" points="429.12,-100.5 439.12,-97 429.12,-93.5 429.12,-100.5"/>
<text text-anchor="middle" x="344.98" y="-100.2" font-family="Times,serif" font-size="14.00">z = w_0 x_0 + w_1 x_1 + b</text>
</g>
<!-- bias -->
<g id="node2" class="node">
<title>bias</title>
<ellipse fill="none" stroke="black" cx="181.49" cy="-184" rx="26.69" ry="26.69"/>
<text text-anchor="middle" x="181.49" y="-178.95" font-family="Times,serif" font-size="14.00">bias</text>
</g>
<!-- bias&#45;&gt;z -->
<g id="edge5" class="edge">
<title>bias&#45;&gt;z</title>
<path fill="none" stroke="black" d="M181.49,-157.04C181.49,-149.59 181.49,-141.37 181.49,-133.47"/>
<polygon fill="black" stroke="black" points="184.99,-133.63 181.49,-123.63 177.99,-133.63 184.99,-133.63"/>
<text text-anchor="middle" x="170.24" y="-134.7" font-family="Times,serif" font-size="14.00">b</text>
</g>
<!-- bias&#45;&gt;alignmentNode -->
<!-- x_0 -->
<g id="node4" class="node">
<title>x_0</title>
<ellipse fill="none" stroke="black" cx="27" cy="-124" rx="27" ry="18"/>
<text text-anchor="middle" x="27" y="-118.95" font-family="Times,serif" font-size="14.00">x_0</text>
</g>
<!-- x_0&#45;&gt;z -->
<g id="edge3" class="edge">
<title>x_0&#45;&gt;z</title>
<path fill="none" stroke="black" d="M53.52,-119.48C75.58,-115.58 108,-109.83 134.56,-105.13"/>
<polygon fill="black" stroke="black" points="134.93,-108.44 144.17,-103.25 133.71,-101.55 134.93,-108.44"/>
<text text-anchor="middle" x="83.62" y="-119.2" font-family="Times,serif" font-size="14.00">w_0</text>
</g>
<!-- x_1 -->
<g id="node5" class="node">
<title>x_1</title>
<ellipse fill="none" stroke="black" cx="27" cy="-70" rx="27" ry="18"/>
<text text-anchor="middle" x="27" y="-64.95" font-family="Times,serif" font-size="14.00">x_1</text>
</g>
<!-- x_1&#45;&gt;z -->
<g id="edge4" class="edge">
<title>x_1&#45;&gt;z</title>
<path fill="none" stroke="black" d="M53.52,-74.52C75.58,-78.42 108,-84.17 134.56,-88.87"/>
<polygon fill="black" stroke="black" points="133.71,-92.45 144.17,-90.75 134.93,-85.56 133.71,-92.45"/>
<text text-anchor="middle" x="83.62" y="-85.2" font-family="Times,serif" font-size="14.00">w_1</text>
</g>
<!-- output -->
<g id="node7" class="node">
<title>output</title>
<ellipse fill="none" stroke="black" cx="608.19" cy="-97" rx="34.46" ry="18"/>
<text text-anchor="middle" x="608.19" y="-91.95" font-family="Times,serif" font-size="14.00">output</text>
</g>
<!-- a&#45;&gt;output -->
<g id="edge7" class="edge">
<title>a&#45;&gt;output</title>
<path fill="none" stroke="black" d="M494.7,-97C513.83,-97 540.13,-97 562.5,-97"/>
<polygon fill="black" stroke="black" points="562.44,-100.5 572.44,-97 562.44,-93.5 562.44,-100.5"/>
<text text-anchor="middle" x="533.98" y="-100.2" font-family="Times,serif" font-size="14.00">a = g(z)</text>
</g>
</g>
</svg>
