<?xml version="1.0" encoding="UTF-8" standalone="no"?>
<!DOCTYPE svg PUBLIC "-//W3C//DTD SVG 1.1//EN"
 "http://www.w3.org/Graphics/SVG/1.1/DTD/svg11.dtd">
<!-- Generated by graphviz version 8.1.0 (20230707.0739)
 -->
<!-- Title: G Pages: 1 -->
<svg width="275pt" height="152pt"
 viewBox="0.00 0.00 275.35 152.00" xmlns="http://www.w3.org/2000/svg" xmlns:xlink="http://www.w3.org/1999/xlink">
<g id="graph0" class="graph" transform="scale(1 1) rotate(0) translate(4 148)">
<title>G</title>
<polygon fill="white" stroke="none" points="-4,4 -4,-148 271.35,-148 271.35,4 -4,4"/>
<!-- x_0 -->
<g id="node1" class="node">
<title>x_0</title>
<ellipse fill="none" stroke="black" cx="27" cy="-99" rx="27" ry="18"/>
<text text-anchor="middle" x="27" y="-93.95" font-family="Times,serif" font-size="14.00">x_0</text>
</g>
<!-- z_0 -->
<g id="node2" class="node">
<title>z_0</title>
<ellipse fill="none" stroke="black" cx="117" cy="-126" rx="27" ry="18"/>
<text text-anchor="middle" x="117" y="-120.95" font-family="Times,serif" font-size="14.00">z_0</text>
</g>
<!-- x_0&#45;&gt;z_0 -->
<g id="edge1" class="edge">
<title>x_0&#45;&gt;z_0</title>
<path fill="none" stroke="black" d="M52.05,-106.38C61.17,-109.18 71.73,-112.42 81.62,-115.45"/>
<polygon fill="black" stroke="black" points="80.4,-119.04 90.98,-118.63 82.45,-112.35 80.4,-119.04"/>
</g>
<!-- z_1 -->
<g id="node3" class="node">
<title>z_1</title>
<ellipse fill="none" stroke="black" cx="117" cy="-72" rx="27" ry="18"/>
<text text-anchor="middle" x="117" y="-66.95" font-family="Times,serif" font-size="14.00">z_1</text>
</g>
<!-- x_0&#45;&gt;z_1 -->
<g id="edge2" class="edge">
<title>x_0&#45;&gt;z_1</title>
<path fill="none" stroke="black" d="M52.05,-91.62C61.17,-88.82 71.73,-85.58 81.62,-82.55"/>
<polygon fill="black" stroke="black" points="82.45,-85.65 90.98,-79.37 80.4,-78.96 82.45,-85.65"/>
</g>
<!-- z_2 -->
<g id="node4" class="node">
<title>z_2</title>
<ellipse fill="none" stroke="black" cx="117" cy="-18" rx="27" ry="18"/>
<text text-anchor="middle" x="117" y="-12.95" font-family="Times,serif" font-size="14.00">z_2</text>
</g>
<!-- x_0&#45;&gt;z_2 -->
<g id="edge3" class="edge">
<title>x_0&#45;&gt;z_2</title>
<path fill="none" stroke="black" d="M43.73,-84.52C57.25,-72.08 76.93,-53.96 92.35,-39.77"/>
<polygon fill="black" stroke="black" points="94.42,-42.7 99.4,-33.36 89.68,-37.55 94.42,-42.7"/>
</g>
<!-- output_0 -->
<g id="node6" class="node">
<title>output_0</title>
<ellipse fill="none" stroke="black" cx="223.67" cy="-126" rx="43.67" ry="18"/>
<text text-anchor="middle" x="223.67" y="-120.95" font-family="Times,serif" font-size="14.00">output_0</text>
</g>
<!-- z_0&#45;&gt;output_0 -->
<g id="edge7" class="edge">
<title>z_0&#45;&gt;output_0</title>
<path fill="none" stroke="black" d="M144.41,-126C151.91,-126 160.35,-126 168.85,-126"/>
<polygon fill="black" stroke="black" points="168.57,-129.5 178.57,-126 168.57,-122.5 168.57,-129.5"/>
</g>
<!-- output_1 -->
<g id="node7" class="node">
<title>output_1</title>
<ellipse fill="none" stroke="black" cx="223.67" cy="-72" rx="43.67" ry="18"/>
<text text-anchor="middle" x="223.67" y="-66.95" font-family="Times,serif" font-size="14.00">output_1</text>
</g>
<!-- z_1&#45;&gt;output_1 -->
<g id="edge8" class="edge">
<title>z_1&#45;&gt;output_1</title>
<path fill="none" stroke="black" d="M144.41,-72C151.91,-72 160.35,-72 168.85,-72"/>
<polygon fill="black" stroke="black" points="168.57,-75.5 178.57,-72 168.57,-68.5 168.57,-75.5"/>
</g>
<!-- output_2 -->
<g id="node8" class="node">
<title>output_2</title>
<ellipse fill="none" stroke="black" cx="223.67" cy="-18" rx="43.67" ry="18"/>
<text text-anchor="middle" x="223.67" y="-12.95" font-family="Times,serif" font-size="14.00">output_2</text>
</g>
<!-- z_2&#45;&gt;output_2 -->
<g id="edge9" class="edge">
<title>z_2&#45;&gt;output_2</title>
<path fill="none" stroke="black" d="M144.41,-18C151.91,-18 160.35,-18 168.85,-18"/>
<polygon fill="black" stroke="black" points="168.57,-21.5 178.57,-18 168.57,-14.5 168.57,-21.5"/>
</g>
<!-- x_1 -->
<g id="node5" class="node">
<title>x_1</title>
<ellipse fill="none" stroke="black" cx="27" cy="-45" rx="27" ry="18"/>
<text text-anchor="middle" x="27" y="-39.95" font-family="Times,serif" font-size="14.00">x_1</text>
</g>
<!-- x_1&#45;&gt;z_0 -->
<g id="edge4" class="edge">
<title>x_1&#45;&gt;z_0</title>
<path fill="none" stroke="black" d="M43.73,-59.48C57.25,-71.92 76.93,-90.04 92.35,-104.23"/>
<polygon fill="black" stroke="black" points="89.68,-106.45 99.4,-110.64 94.42,-101.3 89.68,-106.45"/>
</g>
<!-- x_1&#45;&gt;z_1 -->
<g id="edge5" class="edge">
<title>x_1&#45;&gt;z_1</title>
<path fill="none" stroke="black" d="M52.05,-52.38C61.17,-55.18 71.73,-58.42 81.62,-61.45"/>
<polygon fill="black" stroke="black" points="80.4,-65.04 90.98,-64.63 82.45,-58.35 80.4,-65.04"/>
</g>
<!-- x_1&#45;&gt;z_2 -->
<g id="edge6" class="edge">
<title>x_1&#45;&gt;z_2</title>
<path fill="none" stroke="black" d="M52.05,-37.62C61.17,-34.82 71.73,-31.58 81.62,-28.55"/>
<polygon fill="black" stroke="black" points="82.45,-31.65 90.98,-25.37 80.4,-24.96 82.45,-31.65"/>
</g>
</g>
</svg>
