<?xml version="1.0" encoding="UTF-8" standalone="no"?>
<!DOCTYPE svg PUBLIC "-//W3C//DTD SVG 1.1//EN"
 "http://www.w3.org/Graphics/SVG/1.1/DTD/svg11.dtd">
<!-- Generated by graphviz version 8.1.0 (20230707.0739)
 -->
<!-- Title: G Pages: 1 -->
<svg width="587pt" height="414pt"
 viewBox="0.00 0.00 587.33 414.24" xmlns="http://www.w3.org/2000/svg" xmlns:xlink="http://www.w3.org/1999/xlink">
<g id="graph0" class="graph" transform="scale(1 1) rotate(0) translate(4 410.24)">
<title>G</title>
<polygon fill="white" stroke="none" points="-4,4 -4,-410.24 583.33,-410.24 583.33,4 -4,4"/>
<!-- z0 -->
<g id="node1" class="node">
<title>z0</title>
<polygon fill="none" stroke="black" points="227.99,-298.2 159.99,-298.2 155.99,-294.2 155.99,-247.8 223.99,-247.8 227.99,-251.8 227.99,-298.2"/>
<polyline fill="none" stroke="black" points="223.99,-294.2 155.99,-294.2"/>
<polyline fill="none" stroke="black" points="223.99,-294.2 223.99,-247.8"/>
<polyline fill="none" stroke="black" points="223.99,-294.2 227.99,-298.2"/>
<text text-anchor="middle" x="191.99" y="-267.95" font-family="Times,serif" font-size="14.00">z0</text>
</g>
<!-- alignmentNode -->
<!-- z0&#45;&gt;alignmentNode -->
<!-- output_0 -->
<g id="node8" class="node">
<title>output_0</title>
<ellipse fill="none" stroke="black" cx="535.66" cy="-273" rx="43.67" ry="18"/>
<text text-anchor="middle" x="535.66" y="-267.95" font-family="Times,serif" font-size="14.00">output_0</text>
</g>
<!-- z0&#45;&gt;output_0 -->
<g id="edge8" class="edge">
<title>z0&#45;&gt;output_0</title>
<path fill="none" stroke="black" d="M228.27,-273C288.15,-273 410.05,-273 480.7,-273"/>
<polygon fill="black" stroke="black" points="480.58,-276.5 490.58,-273 480.58,-269.5 480.58,-276.5"/>
<text text-anchor="middle" x="376.11" y="-276.2" font-family="Times,serif" font-size="14.00">z0 = w_0,0 x_0 + w_0,1 x_1 + b_0</text>
</g>
<!-- z1 -->
<g id="node2" class="node">
<title>z1</title>
<polygon fill="none" stroke="black" points="227.99,-122.2 159.99,-122.2 155.99,-118.2 155.99,-71.8 223.99,-71.8 227.99,-75.8 227.99,-122.2"/>
<polyline fill="none" stroke="black" points="223.99,-118.2 155.99,-118.2"/>
<polyline fill="none" stroke="black" points="223.99,-118.2 223.99,-71.8"/>
<polyline fill="none" stroke="black" points="223.99,-118.2 227.99,-122.2"/>
<text text-anchor="middle" x="191.99" y="-91.95" font-family="Times,serif" font-size="14.00">z1</text>
</g>
<!-- z1&#45;&gt;alignmentNode -->
<!-- output_1 -->
<g id="node9" class="node">
<title>output_1</title>
<ellipse fill="none" stroke="black" cx="535.66" cy="-97" rx="43.67" ry="18"/>
<text text-anchor="middle" x="535.66" y="-91.95" font-family="Times,serif" font-size="14.00">output_1</text>
</g>
<!-- z1&#45;&gt;output_1 -->
<g id="edge12" class="edge">
<title>z1&#45;&gt;output_1</title>
<path fill="none" stroke="black" d="M228.27,-97C288.15,-97 410.05,-97 480.7,-97"/>
<polygon fill="black" stroke="black" points="480.58,-100.5 490.58,-97 480.58,-93.5 480.58,-100.5"/>
<text text-anchor="middle" x="376.11" y="-100.2" font-family="Times,serif" font-size="14.00">z1 = w_1,0 x_0 + w_1,1 x_1 + b_1</text>
</g>
<!-- bias_0 -->
<g id="node3" class="node">
<title>bias_0</title>
<ellipse fill="none" stroke="black" cx="191.99" cy="-370" rx="36.24" ry="36.24"/>
<text text-anchor="middle" x="191.99" y="-364.95" font-family="Times,serif" font-size="14.00">bias_0</text>
</g>
<!-- bias_0&#45;&gt;z0 -->
<g id="edge7" class="edge">
<title>bias_0&#45;&gt;z0</title>
<path fill="none" stroke="black" d="M191.99,-333.38C191.99,-325.47 191.99,-317.12 191.99,-309.23"/>
<polygon fill="black" stroke="black" points="195.49,-309.49 191.99,-299.49 188.49,-309.49 195.49,-309.49"/>
<text text-anchor="middle" x="180.74" y="-310.93" font-family="Times,serif" font-size="14.00">b_0</text>
</g>
<!-- bias_0&#45;&gt;alignmentNode -->
<!-- bias_1 -->
<g id="node4" class="node">
<title>bias_1</title>
<ellipse fill="none" stroke="black" cx="191.99" cy="-194" rx="36.24" ry="36.24"/>
<text text-anchor="middle" x="191.99" y="-188.95" font-family="Times,serif" font-size="14.00">bias_1</text>
</g>
<!-- bias_1&#45;&gt;z1 -->
<g id="edge11" class="edge">
<title>bias_1&#45;&gt;z1</title>
<path fill="none" stroke="black" d="M191.99,-157.38C191.99,-149.47 191.99,-141.12 191.99,-133.23"/>
<polygon fill="black" stroke="black" points="195.49,-133.49 191.99,-123.49 188.49,-133.49 195.49,-133.49"/>
<text text-anchor="middle" x="180.74" y="-134.93" font-family="Times,serif" font-size="14.00">b_1</text>
</g>
<!-- bias_1&#45;&gt;alignmentNode -->
<!-- x_0 -->
<g id="node6" class="node">
<title>x_0</title>
<ellipse fill="none" stroke="black" cx="27" cy="-236" rx="27" ry="18"/>
<text text-anchor="middle" x="27" y="-230.95" font-family="Times,serif" font-size="14.00">x_0</text>
</g>
<!-- x_0&#45;&gt;z0 -->
<g id="edge5" class="edge">
<title>x_0&#45;&gt;z0</title>
<path fill="none" stroke="black" d="M52.64,-242.3C58.94,-243.87 65.71,-245.53 72,-247 95.95,-252.61 122.71,-258.49 144.78,-263.24"/>
<polygon fill="black" stroke="black" points="144.01,-266.87 154.52,-265.54 145.48,-260.02 144.01,-266.87"/>
<text text-anchor="middle" x="88.87" y="-257.2" font-family="Times,serif" font-size="14.00">w_0,0</text>
</g>
<!-- x_0&#45;&gt;z1 -->
<g id="edge9" class="edge">
<title>x_0&#45;&gt;z1</title>
<path fill="none" stroke="black" d="M53.23,-231.37C70.21,-227.03 91.94,-218.87 105.75,-204 123.25,-185.15 108.92,-170.02 123.75,-149 130.07,-140.05 138.38,-131.91 146.99,-124.88"/>
<polygon fill="black" stroke="black" points="148.85,-127.09 154.64,-118.21 144.58,-121.54 148.85,-127.09"/>
<text text-anchor="middle" x="88.87" y="-227.2" font-family="Times,serif" font-size="14.00">w_1,0</text>
</g>
<!-- x_1 -->
<g id="node7" class="node">
<title>x_1</title>
<ellipse fill="none" stroke="black" cx="27" cy="-169" rx="27" ry="18"/>
<text text-anchor="middle" x="27" y="-163.95" font-family="Times,serif" font-size="14.00">x_1</text>
</g>
<!-- x_1&#45;&gt;z0 -->
<g id="edge6" class="edge">
<title>x_1&#45;&gt;z0</title>
<path fill="none" stroke="black" d="M54.37,-169.08C70.98,-170.49 91.84,-174.95 105.75,-187.5 123.75,-203.74 107.77,-220.76 123.75,-239 129.88,-246 137.8,-251.74 146.04,-256.37"/>
<polygon fill="black" stroke="black" points="144.27,-259.9 154.77,-261.31 147.44,-253.66 144.27,-259.9"/>
<text text-anchor="middle" x="88.87" y="-191.2" font-family="Times,serif" font-size="14.00">w_0,1</text>
</g>
<!-- x_1&#45;&gt;z1 -->
<g id="edge10" class="edge">
<title>x_1&#45;&gt;z1</title>
<path fill="none" stroke="black" d="M46.29,-155.84C54,-150.64 63.2,-144.89 72,-140.5 95.36,-128.85 122.64,-118.65 145.19,-111.06"/>
<polygon fill="black" stroke="black" points="146.1,-114.11 154.5,-107.66 143.91,-107.47 146.1,-114.11"/>
<text text-anchor="middle" x="88.87" y="-144.2" font-family="Times,serif" font-size="14.00">w_1,1</text>
</g>
</g>
</svg>
