<?xml version="1.0" encoding="UTF-8" standalone="no"?>
<!DOCTYPE svg PUBLIC "-//W3C//DTD SVG 1.1//EN"
 "http://www.w3.org/Graphics/SVG/1.1/DTD/svg11.dtd">
<!-- Generated by graphviz version 8.1.0 (20230707.0739)
 -->
<!-- Title: G Pages: 1 -->
<svg width="578pt" height="98pt"
 viewBox="0.00 0.00 578.43 98.00" xmlns="http://www.w3.org/2000/svg" xmlns:xlink="http://www.w3.org/1999/xlink">
<g id="graph0" class="graph" transform="scale(1 1) rotate(0) translate(4 94)">
<title>G</title>
<polygon fill="white" stroke="none" points="-4,4 -4,-94 574.43,-94 574.43,4 -4,4"/>
<!-- x_0 -->
<g id="node1" class="node">
<title>x_0</title>
<ellipse fill="none" stroke="black" cx="27" cy="-72" rx="27" ry="18"/>
<text text-anchor="middle" x="27" y="-66.95" font-family="Times,serif" font-size="14.00">x_0</text>
</g>
<!-- z_0_0 -->
<g id="node2" class="node">
<title>z_0_0</title>
<ellipse fill="none" stroke="black" cx="123.44" cy="-72" rx="33.44" ry="18"/>
<text text-anchor="middle" x="123.44" y="-66.95" font-family="Times,serif" font-size="14.00">z_0_0</text>
</g>
<!-- x_0&#45;&gt;z_0_0 -->
<g id="edge1" class="edge">
<title>x_0&#45;&gt;z_0_0</title>
<path fill="none" stroke="black" d="M54.31,-72C61.9,-72 70.39,-72 78.73,-72"/>
<polygon fill="black" stroke="black" points="78.53,-75.5 88.53,-72 78.53,-68.5 78.53,-75.5"/>
</g>
<!-- z_0_1 -->
<g id="node3" class="node">
<title>z_0_1</title>
<ellipse fill="none" stroke="black" cx="123.44" cy="-18" rx="33.44" ry="18"/>
<text text-anchor="middle" x="123.44" y="-12.95" font-family="Times,serif" font-size="14.00">z_0_1</text>
</g>
<!-- x_0&#45;&gt;z_0_1 -->
<g id="edge2" class="edge">
<title>x_0&#45;&gt;z_0_1</title>
<path fill="none" stroke="black" d="M48.03,-60.55C60.35,-53.5 76.41,-44.32 90.46,-36.29"/>
<polygon fill="black" stroke="black" points="91.84,-38.95 98.79,-30.95 88.37,-32.88 91.84,-38.95"/>
</g>
<!-- a_0_0 -->
<g id="node5" class="node">
<title>a_0_0</title>
<ellipse fill="none" stroke="black" cx="226.31" cy="-72" rx="33.44" ry="18"/>
<text text-anchor="middle" x="226.31" y="-66.95" font-family="Times,serif" font-size="14.00">a_0_0</text>
</g>
<!-- z_0_0&#45;&gt;a_0_0 -->
<g id="edge5" class="edge">
<title>z_0_0&#45;&gt;a_0_0</title>
<path fill="none" stroke="black" d="M157.19,-72C164.94,-72 173.33,-72 181.49,-72"/>
<polygon fill="black" stroke="black" points="181.38,-75.5 191.38,-72 181.38,-68.5 181.38,-75.5"/>
</g>
<!-- a_0_1 -->
<g id="node7" class="node">
<title>a_0_1</title>
<ellipse fill="none" stroke="black" cx="226.31" cy="-18" rx="33.44" ry="18"/>
<text text-anchor="middle" x="226.31" y="-12.95" font-family="Times,serif" font-size="14.00">a_0_1</text>
</g>
<!-- z_0_1&#45;&gt;a_0_1 -->
<g id="edge7" class="edge">
<title>z_0_1&#45;&gt;a_0_1</title>
<path fill="none" stroke="black" d="M157.19,-18C164.94,-18 173.33,-18 181.49,-18"/>
<polygon fill="black" stroke="black" points="181.38,-21.5 191.38,-18 181.38,-14.5 181.38,-21.5"/>
</g>
<!-- x_1 -->
<g id="node4" class="node">
<title>x_1</title>
<ellipse fill="none" stroke="black" cx="27" cy="-18" rx="27" ry="18"/>
<text text-anchor="middle" x="27" y="-12.95" font-family="Times,serif" font-size="14.00">x_1</text>
</g>
<!-- x_1&#45;&gt;z_0_0 -->
<g id="edge3" class="edge">
<title>x_1&#45;&gt;z_0_0</title>
<path fill="none" stroke="black" d="M48.03,-29.45C60.35,-36.5 76.41,-45.68 90.46,-53.71"/>
<polygon fill="black" stroke="black" points="88.37,-57.12 98.79,-59.05 91.84,-51.05 88.37,-57.12"/>
</g>
<!-- x_1&#45;&gt;z_0_1 -->
<g id="edge4" class="edge">
<title>x_1&#45;&gt;z_0_1</title>
<path fill="none" stroke="black" d="M54.31,-18C61.9,-18 70.39,-18 78.73,-18"/>
<polygon fill="black" stroke="black" points="78.53,-21.5 88.53,-18 78.53,-14.5 78.53,-21.5"/>
</g>
<!-- z_1_0 -->
<g id="node6" class="node">
<title>z_1_0</title>
<ellipse fill="none" stroke="black" cx="329.19" cy="-45" rx="33.44" ry="18"/>
<text text-anchor="middle" x="329.19" y="-39.95" font-family="Times,serif" font-size="14.00">z_1_0</text>
</g>
<!-- a_0_0&#45;&gt;z_1_0 -->
<g id="edge6" class="edge">
<title>a_0_0&#45;&gt;z_1_0</title>
<path fill="none" stroke="black" d="M256.76,-64.12C266.71,-61.46 277.98,-58.44 288.58,-55.6"/>
<polygon fill="black" stroke="black" points="289.12,-58.81 297.88,-52.85 287.31,-52.05 289.12,-58.81"/>
</g>
<!-- a_1_0 -->
<g id="node8" class="node">
<title>a_1_0</title>
<ellipse fill="none" stroke="black" cx="432.07" cy="-45" rx="33.44" ry="18"/>
<text text-anchor="middle" x="432.07" y="-39.95" font-family="Times,serif" font-size="14.00">a_1_0</text>
</g>
<!-- z_1_0&#45;&gt;a_1_0 -->
<g id="edge9" class="edge">
<title>z_1_0&#45;&gt;a_1_0</title>
<path fill="none" stroke="black" d="M362.94,-45C370.69,-45 379.08,-45 387.24,-45"/>
<polygon fill="black" stroke="black" points="387.13,-48.5 397.13,-45 387.13,-41.5 387.13,-48.5"/>
</g>
<!-- a_0_1&#45;&gt;z_1_0 -->
<g id="edge8" class="edge">
<title>a_0_1&#45;&gt;z_1_0</title>
<path fill="none" stroke="black" d="M256.76,-25.88C266.71,-28.54 277.98,-31.56 288.58,-34.4"/>
<polygon fill="black" stroke="black" points="287.31,-37.95 297.88,-37.15 289.12,-31.19 287.31,-37.95"/>
</g>
<!-- output -->
<g id="node9" class="node">
<title>output</title>
<ellipse fill="none" stroke="black" cx="535.97" cy="-45" rx="34.46" ry="18"/>
<text text-anchor="middle" x="535.97" y="-39.95" font-family="Times,serif" font-size="14.00">output</text>
</g>
<!-- a_1_0&#45;&gt;output -->
<g id="edge10" class="edge">
<title>a_1_0&#45;&gt;output</title>
<path fill="none" stroke="black" d="M465.87,-45C473.63,-45 482.04,-45 490.22,-45"/>
<polygon fill="black" stroke="black" points="490.17,-48.5 500.17,-45 490.17,-41.5 490.17,-48.5"/>
</g>
</g>
</svg>
