<?xml version="1.0" encoding="UTF-8" standalone="no"?>
<!DOCTYPE svg PUBLIC "-//W3C//DTD SVG 1.1//EN"
 "http://www.w3.org/Graphics/SVG/1.1/DTD/svg11.dtd">
<!-- Generated by graphviz version 8.1.0 (20230707.0739)
 -->
<!-- Title: G Pages: 1 -->
<svg width="373pt" height="98pt"
 viewBox="0.00 0.00 372.68 98.00" xmlns="http://www.w3.org/2000/svg" xmlns:xlink="http://www.w3.org/1999/xlink">
<g id="graph0" class="graph" transform="scale(1 1) rotate(0) translate(4 94)">
<title>G</title>
<polygon fill="white" stroke="none" points="-4,4 -4,-94 368.68,-94 368.68,4 -4,4"/>
<!-- x_0 -->
<g id="node1" class="node">
<title>x_0</title>
<ellipse fill="none" stroke="black" cx="27" cy="-72" rx="27" ry="18"/>
<text text-anchor="middle" x="27" y="-66.95" font-family="Times,serif" font-size="14.00">x_0</text>
</g>
<!-- z_0_0 -->
<g id="node2" class="node">
<title>z_0_0</title>
<ellipse fill="none" stroke="black" cx="123.44" cy="-72" rx="33.44" ry="18"/>
<text text-anchor="middle" x="123.44" y="-66.95" font-family="Times,serif" font-size="14.00">z_0_0</text>
</g>
<!-- x_0&#45;&gt;z_0_0 -->
<g id="edge1" class="edge">
<title>x_0&#45;&gt;z_0_0</title>
<path fill="none" stroke="black" d="M54.31,-72C61.9,-72 70.39,-72 78.73,-72"/>
<polygon fill="black" stroke="black" points="78.53,-75.5 88.53,-72 78.53,-68.5 78.53,-75.5"/>
</g>
<!-- z_1_0 -->
<g id="node5" class="node">
<title>z_1_0</title>
<ellipse fill="none" stroke="black" cx="226.31" cy="-45" rx="33.44" ry="18"/>
<text text-anchor="middle" x="226.31" y="-39.95" font-family="Times,serif" font-size="14.00">z_1_0</text>
</g>
<!-- z_0_0&#45;&gt;z_1_0 -->
<g id="edge3" class="edge">
<title>z_0_0&#45;&gt;z_1_0</title>
<path fill="none" stroke="black" d="M153.89,-64.12C163.83,-61.46 175.1,-58.44 185.7,-55.6"/>
<polygon fill="black" stroke="black" points="186.25,-58.81 195,-52.85 184.44,-52.05 186.25,-58.81"/>
</g>
<!-- x_1 -->
<g id="node3" class="node">
<title>x_1</title>
<ellipse fill="none" stroke="black" cx="27" cy="-18" rx="27" ry="18"/>
<text text-anchor="middle" x="27" y="-12.95" font-family="Times,serif" font-size="14.00">x_1</text>
</g>
<!-- z_0_1 -->
<g id="node4" class="node">
<title>z_0_1</title>
<ellipse fill="none" stroke="black" cx="123.44" cy="-18" rx="33.44" ry="18"/>
<text text-anchor="middle" x="123.44" y="-12.95" font-family="Times,serif" font-size="14.00">z_0_1</text>
</g>
<!-- x_1&#45;&gt;z_0_1 -->
<g id="edge2" class="edge">
<title>x_1&#45;&gt;z_0_1</title>
<path fill="none" stroke="black" d="M54.31,-18C61.9,-18 70.39,-18 78.73,-18"/>
<polygon fill="black" stroke="black" points="78.53,-21.5 88.53,-18 78.53,-14.5 78.53,-21.5"/>
</g>
<!-- z_0_1&#45;&gt;z_1_0 -->
<g id="edge4" class="edge">
<title>z_0_1&#45;&gt;z_1_0</title>
<path fill="none" stroke="black" d="M153.89,-25.88C163.83,-28.54 175.1,-31.56 185.7,-34.4"/>
<polygon fill="black" stroke="black" points="184.44,-37.95 195,-37.15 186.25,-31.19 184.44,-37.95"/>
</g>
<!-- output -->
<g id="node6" class="node">
<title>output</title>
<ellipse fill="none" stroke="black" cx="330.21" cy="-45" rx="34.46" ry="18"/>
<text text-anchor="middle" x="330.21" y="-39.95" font-family="Times,serif" font-size="14.00">output</text>
</g>
<!-- z_1_0&#45;&gt;output -->
<g id="edge5" class="edge">
<title>z_1_0&#45;&gt;output</title>
<path fill="none" stroke="black" d="M260.12,-45C267.88,-45 276.28,-45 284.47,-45"/>
<polygon fill="black" stroke="black" points="284.42,-48.5 294.42,-45 284.42,-41.5 284.42,-48.5"/>
</g>
</g>
</svg>
