<?xml version="1.0" encoding="UTF-8" standalone="no"?>
<!DOCTYPE svg PUBLIC "-//W3C//DTD SVG 1.1//EN"
 "http://www.w3.org/Graphics/SVG/1.1/DTD/svg11.dtd">
<!-- Generated by graphviz version 8.1.0 (20230707.0739)
 -->
<!-- Title: G Pages: 1 -->
<svg width="478pt" height="98pt"
 viewBox="0.00 0.00 477.66 98.00" xmlns="http://www.w3.org/2000/svg" xmlns:xlink="http://www.w3.org/1999/xlink">
<g id="graph0" class="graph" transform="scale(1 1) rotate(0) translate(4 94)">
<title>G</title>
<polygon fill="white" stroke="none" points="-4,4 -4,-94 473.66,-94 473.66,4 -4,4"/>
<!-- x_0 -->
<g id="node1" class="node">
<title>x_0</title>
<ellipse fill="none" stroke="black" cx="27" cy="-45" rx="27" ry="18"/>
<text text-anchor="middle" x="27" y="-39.95" font-family="Times,serif" font-size="14.00">3</text>
</g>
<!-- a_0_0 -->
<g id="node2" class="node">
<title>a_0_0</title>
<ellipse fill="none" stroke="black" cx="157.72" cy="-72" rx="56.47" ry="18"/>
<text text-anchor="middle" x="157.72" y="-66.95" font-family="Times,serif" font-size="14.00">b=&#45;2, ReLU</text>
</g>
<!-- x_0&#45;&gt;a_0_0 -->
<g id="edge1" class="edge">
<title>x_0&#45;&gt;a_0_0</title>
<path fill="none" stroke="black" d="M53.12,-50.27C66.33,-53.04 83.09,-56.56 99.27,-59.95"/>
<polygon fill="black" stroke="black" points="98.27,-63.53 108.77,-62.15 99.71,-56.67 98.27,-63.53"/>
<text text-anchor="middle" x="77.62" y="-60.2" font-family="Times,serif" font-size="14.00">&#45;2</text>
</g>
<!-- a_0_1 -->
<g id="node3" class="node">
<title>a_0_1</title>
<ellipse fill="none" stroke="black" cx="157.72" cy="-18" rx="53.4" ry="18"/>
<text text-anchor="middle" x="157.72" y="-12.95" font-family="Times,serif" font-size="14.00">b=5, ReLU</text>
</g>
<!-- x_0&#45;&gt;a_0_1 -->
<g id="edge2" class="edge">
<title>x_0&#45;&gt;a_0_1</title>
<path fill="none" stroke="black" d="M52.63,-38.93C58.93,-37.43 65.71,-35.86 72,-34.5 80.95,-32.56 90.45,-30.61 99.73,-28.76"/>
<polygon fill="black" stroke="black" points="100.35,-32.01 109.48,-26.64 98.99,-25.14 100.35,-32.01"/>
<text text-anchor="middle" x="77.62" y="-38.2" font-family="Times,serif" font-size="14.00">5</text>
</g>
<!-- a_1_0 -->
<g id="node4" class="node">
<title>a_1_0</title>
<ellipse fill="none" stroke="black" cx="310.34" cy="-45" rx="53.4" ry="18"/>
<text text-anchor="middle" x="310.34" y="-39.95" font-family="Times,serif" font-size="14.00">b=0, ReLU</text>
</g>
<!-- a_0_0&#45;&gt;a_1_0 -->
<g id="edge3" class="edge">
<title>a_0_0&#45;&gt;a_1_0</title>
<path fill="none" stroke="black" d="M207.62,-63.23C221.79,-60.69 237.39,-57.9 252.02,-55.27"/>
<polygon fill="black" stroke="black" points="252.25,-58.61 261.48,-53.4 251.01,-51.72 252.25,-58.61"/>
<text text-anchor="middle" x="235.56" y="-61.2" font-family="Times,serif" font-size="14.00">3</text>
</g>
<!-- a_0_1&#45;&gt;a_1_0 -->
<g id="edge4" class="edge">
<title>a_0_1&#45;&gt;a_1_0</title>
<path fill="none" stroke="black" d="M205.55,-26.39C220.28,-29.04 236.73,-31.98 252.1,-34.74"/>
<polygon fill="black" stroke="black" points="251.08,-38.29 261.54,-36.61 252.31,-31.4 251.08,-38.29"/>
<text text-anchor="middle" x="235.56" y="-36.2" font-family="Times,serif" font-size="14.00">2</text>
</g>
<!-- output -->
<g id="node5" class="node">
<title>output</title>
<ellipse fill="none" stroke="black" cx="435.2" cy="-45" rx="34.46" ry="18"/>
<text text-anchor="middle" x="435.2" y="-39.95" font-family="Times,serif" font-size="14.00">output</text>
</g>
<!-- a_1_0&#45;&gt;output -->
<g id="edge5" class="edge">
<title>a_1_0&#45;&gt;output</title>
<path fill="none" stroke="black" d="M364.15,-45C372.56,-45 381.19,-45 389.38,-45"/>
<polygon fill="black" stroke="black" points="389.24,-48.5 399.24,-45 389.24,-41.5 389.24,-48.5"/>
</g>
</g>
</svg>
