<?xml version="1.0" encoding="UTF-8" standalone="no"?>
<!DOCTYPE svg PUBLIC "-//W3C//DTD SVG 1.1//EN"
 "http://www.w3.org/Graphics/SVG/1.1/DTD/svg11.dtd">
<!-- Generated by graphviz version 8.1.0 (20230707.0739)
 -->
<!-- Title: G Pages: 1 -->
<svg width="470pt" height="219pt"
 viewBox="0.00 0.00 470.16 218.69" xmlns="http://www.w3.org/2000/svg" xmlns:xlink="http://www.w3.org/1999/xlink">
<g id="graph0" class="graph" transform="scale(1 1) rotate(0) translate(4 214.69)">
<title>G</title>
<polygon fill="white" stroke="none" points="-4,4 -4,-214.69 466.16,-214.69 466.16,4 -4,4"/>
<!-- z -->
<g id="node1" class="node">
<title>z</title>
<polygon fill="none" stroke="black" points="200.99,-122.2 132.99,-122.2 128.99,-118.2 128.99,-71.8 196.99,-71.8 200.99,-75.8 200.99,-122.2"/>
<polyline fill="none" stroke="black" points="196.99,-118.2 128.99,-118.2"/>
<polyline fill="none" stroke="black" points="196.99,-118.2 196.99,-71.8"/>
<polyline fill="none" stroke="black" points="196.99,-118.2 200.99,-122.2"/>
<text text-anchor="middle" x="164.99" y="-91.95" font-family="Times,serif" font-size="14.00">z</text>
</g>
<!-- alignmentNode -->
<!-- z&#45;&gt;alignmentNode -->
<!-- a -->
<g id="node6" class="node">
<title>a</title>
<ellipse fill="none" stroke="black" cx="297.23" cy="-97" rx="27" ry="18"/>
<text text-anchor="middle" x="297.23" y="-91.95" font-family="Times,serif" font-size="14.00">a</text>
</g>
<!-- z&#45;&gt;a -->
<g id="edge6" class="edge">
<title>z&#45;&gt;a</title>
<path fill="none" stroke="black" d="M201.24,-97C219.2,-97 241.04,-97 259.25,-97"/>
<polygon fill="black" stroke="black" points="259.05,-100.5 269.05,-97 259.05,-93.5 259.05,-100.5"/>
</g>
<!-- bias -->
<g id="node2" class="node">
<title>bias</title>
<ellipse fill="none" stroke="black" cx="164.99" cy="-184" rx="26.69" ry="26.69"/>
<text text-anchor="middle" x="164.99" y="-178.95" font-family="Times,serif" font-size="14.00">bias</text>
</g>
<!-- bias&#45;&gt;z -->
<g id="edge5" class="edge">
<title>bias&#45;&gt;z</title>
<path fill="none" stroke="black" d="M164.99,-157.04C164.99,-149.59 164.99,-141.37 164.99,-133.47"/>
<polygon fill="black" stroke="black" points="168.49,-133.63 164.99,-123.63 161.49,-133.63 168.49,-133.63"/>
<text text-anchor="middle" x="153.74" y="-134.7" font-family="Times,serif" font-size="14.00">5</text>
</g>
<!-- bias&#45;&gt;alignmentNode -->
<!-- x_0 -->
<g id="node3" class="node">
<title>x_0</title>
<ellipse fill="none" stroke="black" cx="27" cy="-124" rx="27" ry="18"/>
<text text-anchor="middle" x="27" y="-118.95" font-family="Times,serif" font-size="14.00">1</text>
</g>
<!-- x_0&#45;&gt;z -->
<g id="edge3" class="edge">
<title>x_0&#45;&gt;z</title>
<path fill="none" stroke="black" d="M53.26,-118.98C71.4,-115.38 96.35,-110.43 117.98,-106.13"/>
<polygon fill="black" stroke="black" points="118.49,-109.4 127.61,-104.02 117.12,-102.54 118.49,-109.4"/>
<text text-anchor="middle" x="75.38" y="-117.2" font-family="Times,serif" font-size="14.00">3</text>
</g>
<!-- x_1 -->
<g id="node4" class="node">
<title>x_1</title>
<ellipse fill="none" stroke="black" cx="27" cy="-70" rx="27" ry="18"/>
<text text-anchor="middle" x="27" y="-64.95" font-family="Times,serif" font-size="14.00">2</text>
</g>
<!-- x_1&#45;&gt;z -->
<g id="edge4" class="edge">
<title>x_1&#45;&gt;z</title>
<path fill="none" stroke="black" d="M53.26,-75.02C71.4,-78.62 96.35,-83.57 117.98,-87.87"/>
<polygon fill="black" stroke="black" points="117.12,-91.46 127.61,-89.98 118.49,-84.6 117.12,-91.46"/>
<text text-anchor="middle" x="75.38" y="-83.2" font-family="Times,serif" font-size="14.00">4</text>
</g>
<!-- output -->
<g id="node7" class="node">
<title>output</title>
<ellipse fill="none" stroke="black" cx="427.69" cy="-97" rx="34.46" ry="18"/>
<text text-anchor="middle" x="427.69" y="-91.95" font-family="Times,serif" font-size="14.00">output</text>
</g>
<!-- a&#45;&gt;output -->
<g id="edge7" class="edge">
<title>a&#45;&gt;output</title>
<path fill="none" stroke="black" d="M324.54,-97C341.11,-97 362.92,-97 382.13,-97"/>
<polygon fill="black" stroke="black" points="382.09,-100.5 392.08,-97 382.08,-93.5 382.09,-100.5"/>
<text text-anchor="middle" x="358.73" y="-100.2" font-family="Times,serif" font-size="14.00">ReLU</text>
</g>
</g>
</svg>
