<?xml version="1.0" encoding="UTF-8" standalone="no"?>
<!DOCTYPE svg PUBLIC "-//W3C//DTD SVG 1.1//EN"
 "http://www.w3.org/Graphics/SVG/1.1/DTD/svg11.dtd">
<!-- Generated by graphviz version 8.1.0 (20230707.0739)
 -->
<!-- Title: G Pages: 1 -->
<svg width="366pt" height="122pt"
 viewBox="0.00 0.00 365.92 122.46" xmlns="http://www.w3.org/2000/svg" xmlns:xlink="http://www.w3.org/1999/xlink">
<g id="graph0" class="graph" transform="scale(1 1) rotate(0) translate(4 118.46)">
<title>G</title>
<polygon fill="white" stroke="none" points="-4,4 -4,-118.46 361.92,-118.46 361.92,4 -4,4"/>
<!-- x_0 -->
<g id="node1" class="node">
<title>x_0</title>
<ellipse fill="none" stroke="black" cx="27" cy="-92.96" rx="27" ry="18"/>
<text text-anchor="middle" x="27" y="-87.91" font-family="Times,serif" font-size="14.00">1</text>
</g>
<!-- a_0_0 -->
<g id="node3" class="node">
<title>a_0_0</title>
<ellipse fill="none" stroke="black" cx="128.25" cy="-86.96" rx="27" ry="18"/>
<text text-anchor="middle" x="128.25" y="-81.91" font-family="Times,serif" font-size="14.00">b=3</text>
</g>
<!-- x_0&#45;&gt;a_0_0 -->
<g id="edge1" class="edge">
<title>x_0&#45;&gt;a_0_0</title>
<path fill="none" stroke="black" d="M53.62,-97.55C62.96,-98.62 73.6,-99.15 83.25,-97.96 86.33,-97.58 89.5,-97.06 92.66,-96.44"/>
<polygon fill="black" stroke="black" points="93.24,-99.68 102.24,-94.09 91.72,-92.85 93.24,-99.68"/>
<text text-anchor="middle" x="77.62" y="-101.16" font-family="Times,serif" font-size="14.00">&#45;3</text>
</g>
<!-- a_0_1 -->
<g id="node4" class="node">
<title>a_0_1</title>
<ellipse fill="none" stroke="black" cx="128.25" cy="-32.96" rx="27" ry="18"/>
<text text-anchor="middle" x="128.25" y="-27.91" font-family="Times,serif" font-size="14.00">b=2</text>
</g>
<!-- x_0&#45;&gt;a_0_1 -->
<g id="edge2" class="edge">
<title>x_0&#45;&gt;a_0_1</title>
<path fill="none" stroke="black" d="M47.61,-81.11C62.15,-72.31 82.21,-60.19 98.56,-50.31"/>
<polygon fill="black" stroke="black" points="99.94,-52.96 106.68,-44.79 96.31,-46.97 99.94,-52.96"/>
<text text-anchor="middle" x="77.62" y="-67.16" font-family="Times,serif" font-size="14.00">4</text>
</g>
<!-- x_1 -->
<g id="node2" class="node">
<title>x_1</title>
<ellipse fill="none" stroke="black" cx="27" cy="-25.96" rx="27" ry="18"/>
<text text-anchor="middle" x="27" y="-20.91" font-family="Times,serif" font-size="14.00">2</text>
</g>
<!-- x_1&#45;&gt;a_0_0 -->
<g id="edge3" class="edge">
<title>x_1&#45;&gt;a_0_0</title>
<path fill="none" stroke="black" d="M53.95,-29.61C63.63,-31.76 74.41,-35.15 83.25,-40.46 93.36,-46.53 93.16,-51.38 101.25,-59.96 102.51,-61.29 103.8,-62.66 105.12,-64.04"/>
<polygon fill="black" stroke="black" points="102.17,-66.07 111.62,-70.88 107.23,-61.23 102.17,-66.07"/>
<text text-anchor="middle" x="77.62" y="-43.16" font-family="Times,serif" font-size="14.00">5</text>
</g>
<!-- x_1&#45;&gt;a_0_1 -->
<g id="edge4" class="edge">
<title>x_1&#45;&gt;a_0_1</title>
<path fill="none" stroke="black" d="M44.08,-11.98C54.92,-4.28 69.66,2.9 83.25,-1.46 90.34,-3.74 97.26,-7.62 103.43,-11.91"/>
<polygon fill="black" stroke="black" points="100.8,-15.06 110.88,-18.32 105.03,-9.49 100.8,-15.06"/>
<text text-anchor="middle" x="77.62" y="-4.16" font-family="Times,serif" font-size="14.00">&#45;6</text>
</g>
<!-- a_1_0 -->
<g id="node5" class="node">
<title>a_1_0</title>
<ellipse fill="none" stroke="black" cx="225" cy="-59.96" rx="27" ry="18"/>
<text text-anchor="middle" x="225" y="-54.91" font-family="Times,serif" font-size="14.00">b=1</text>
</g>
<!-- a_0_0&#45;&gt;a_1_0 -->
<g id="edge5" class="edge">
<title>a_0_0&#45;&gt;a_1_0</title>
<path fill="none" stroke="black" d="M153.65,-80.01C164.48,-76.92 177.43,-73.23 189.24,-69.86"/>
<polygon fill="black" stroke="black" points="190.02,-73 198.68,-66.89 188.11,-66.26 190.02,-73"/>
<text text-anchor="middle" x="176.62" y="-77.16" font-family="Times,serif" font-size="14.00">7</text>
</g>
<!-- a_0_1&#45;&gt;a_1_0 -->
<g id="edge6" class="edge">
<title>a_0_1&#45;&gt;a_1_0</title>
<path fill="none" stroke="black" d="M153.65,-39.91C164.48,-43 177.43,-46.69 189.24,-50.05"/>
<polygon fill="black" stroke="black" points="188.11,-53.66 198.68,-53.03 190.02,-46.92 188.11,-53.66"/>
<text text-anchor="middle" x="176.62" y="-50.16" font-family="Times,serif" font-size="14.00">8</text>
</g>
<!-- output -->
<g id="node6" class="node">
<title>output</title>
<ellipse fill="none" stroke="black" cx="323.46" cy="-59.96" rx="34.46" ry="18"/>
<text text-anchor="middle" x="323.46" y="-54.91" font-family="Times,serif" font-size="14.00">output</text>
</g>
<!-- a_1_0&#45;&gt;output -->
<g id="edge7" class="edge">
<title>a_1_0&#45;&gt;output</title>
<path fill="none" stroke="black" d="M252.36,-59.96C260.2,-59.96 269.03,-59.96 277.7,-59.96"/>
<polygon fill="black" stroke="black" points="277.52,-63.46 287.52,-59.96 277.52,-56.46 277.52,-63.46"/>
</g>
</g>
</svg>
