<?xml version="1.0" encoding="UTF-8" standalone="no"?>
<!DOCTYPE svg PUBLIC "-//W3C//DTD SVG 1.1//EN"
 "http://www.w3.org/Graphics/SVG/1.1/DTD/svg11.dtd">
<!-- Generated by graphviz version 8.1.0 (20230707.0739)
 -->
<!-- Title: G Pages: 1 -->
<svg width="277pt" height="44pt"
 viewBox="0.00 0.00 276.97 44.00" xmlns="http://www.w3.org/2000/svg" xmlns:xlink="http://www.w3.org/1999/xlink">
<g id="graph0" class="graph" transform="scale(1 1) rotate(0) translate(4 40)">
<title>G</title>
<polygon fill="white" stroke="none" points="-4,4 -4,-40 272.97,-40 272.97,4 -4,4"/>
<!-- inputs -->
<g id="node1" class="node">
<title>inputs</title>
<ellipse fill="none" stroke="black" cx="33.44" cy="-18" rx="33.44" ry="18"/>
<text text-anchor="middle" x="33.44" y="-12.95" font-family="Times,serif" font-size="14.00">inputs</text>
</g>
<!-- fn -->
<g id="node2" class="node">
<title>fn</title>
<ellipse fill="none" stroke="black" cx="129.88" cy="-18" rx="27" ry="18"/>
<text text-anchor="middle" x="129.88" y="-12.95" font-family="Times,serif" font-size="14.00">fn</text>
</g>
<!-- inputs&#45;&gt;fn -->
<g id="edge1" class="edge">
<title>inputs&#45;&gt;fn</title>
<path fill="none" stroke="black" d="M67.2,-18C75.02,-18 83.43,-18 91.44,-18"/>
<polygon fill="black" stroke="black" points="91.41,-21.5 101.41,-18 91.41,-14.5 91.41,-21.5"/>
</g>
<!-- outputs -->
<g id="node3" class="node">
<title>outputs</title>
<ellipse fill="none" stroke="black" cx="230.92" cy="-18" rx="38.04" ry="18"/>
<text text-anchor="middle" x="230.92" y="-12.95" font-family="Times,serif" font-size="14.00">outputs</text>
</g>
<!-- fn&#45;&gt;outputs -->
<g id="edge2" class="edge">
<title>fn&#45;&gt;outputs</title>
<path fill="none" stroke="black" d="M157.16,-18C164.81,-18 173.43,-18 181.98,-18"/>
<polygon fill="black" stroke="black" points="181.7,-21.5 191.7,-18 181.7,-14.5 181.7,-21.5"/>
</g>
</g>
</svg>
